{
.appVersion = "1056";
DisplayStrings = (
/a.alt2/o.alt2,
/o.alt2,
/o.alt2,
/p.alt1,
/n.alt2,
/a.alt2/n.alt2/o.alt2,
C,
/C.alt2,
"/C.alt2/a.alt2/n.alt2/y.alt2/o.alt2/n.alt2/y.alt2   ",
g,
/y.alt2
);
date = "2018-10-03 14:49:26 +0000";
familyName = "New Font";
fontMaster = (
{
ascender = 800;
capHeight = 700;
descender = -200;
guideLines = (
{
locked = 1;
position = "{0, 465}";
},
{
locked = 1;
position = "{0, 250}";
},
{
locked = 1;
position = "{0, 35}";
},
{
locked = 1;
position = "{0, 665}";
},
{
angle = 90;
locked = 1;
position = "{35, 700}";
}
);
id = "E2083702-67E7-471D-AE09-DB685EF5235E";
visible = 1;
xHeight = 500;
}
);
glyphs = (
{
color = 6;
glyphname = A;
lastChange = "2018-11-20 10:46:38 +0000";
layers = (
{
layerId = "E2083702-67E7-471D-AE09-DB685EF5235E";
paths = (
{
closed = 1;
nodes = (
"485 -45 OFFCURVE",
"505 -25 OFFCURVE",
"505 0 CURVE SMOOTH",
"505 667 LINE SMOOTH",
"505 691 OFFCURVE",
"498 707 OFFCURVE",
"483 723 CURVE SMOOTH",
"467 738 OFFCURVE",
"451 745 OFFCURVE",
"427 745 CURVE SMOOTH",
"233 745 LINE SMOOTH",
"208 745 OFFCURVE",
"188 724.853 OFFCURVE",
"188 700 CURVE SMOOTH",
"188 675.147 OFFCURVE",
"208 655 OFFCURVE",
"233 655 CURVE SMOOTH",
"377 655 LINE",
"-32.289 31.197 LINE SMOOTH",
"-37 24 OFFCURVE",
"-40 15.336 OFFCURVE",
"-40 6 CURVE SMOOTH",
"-40 -18.853 OFFCURVE",
"-19.853 -39 OFFCURVE",
"5 -39 CURVE SMOOTH",
"20.984 -39 OFFCURVE",
"35.021 -30.666 OFFCURVE",
"43.005 -18.106 CURVE SMOOTH",
"235.171 275 LINE",
"415 275 LINE",
"415 0 LINE SMOOTH",
"415 -25 OFFCURVE",
"435 -45 OFFCURVE",
"460 -45 CURVE SMOOTH"
);
},
{
closed = 1;
nodes = (
"415 549 LINE",
"415 365 LINE",
"294.176 365 LINE"
);
}
);
width = 600;
},
{
associatedMasterId = "E2083702-67E7-471D-AE09-DB685EF5235E";
layerId = "A8185D96-F11A-4DCF-B901-57D1B74323C9";
name = "Nov 13 18, 15:08";
paths = (
{
closed = 0;
nodes = (
"233 700 LINE",
"460 700 LINE",
"460 0 LINE"
);
},
{
closed = 0;
nodes = (
"5 6 LINE",
"460 700 LINE"
);
},
{
closed = 0;
nodes = (
"210 320 LINE",
"460 320 LINE"
);
}
);
width = 600;
},
{
associatedMasterId = "E2083702-67E7-471D-AE09-DB685EF5235E";
layerId = "B7204A27-DC2F-4D0A-9BEA-FF53830508FA";
name = "Nov 13 18, 15:09";
paths = (
{
closed = 0;
nodes = (
"100 700 LINE",
"250 700 LINE",
"460 0 LINE"
);
},
{
closed = 0;
nodes = (
"5 6 LINE",
"250 700 LINE"
);
},
{
closed = 0;
nodes = (
"115 320 LINE",
"365 320 LINE"
);
}
);
width = 600;
}
);
unicode = 0041;
},
{
color = 6;
glyphname = B;
lastChange = "2018-11-20 10:46:38 +0000";
layers = (
{
layerId = "E2083702-67E7-471D-AE09-DB685EF5235E";
paths = (
{
closed = 1;
nodes = (
"180 -45 LINE SMOOTH",
"433.711 -45 OFFCURVE",
"545 19.981 OFFCURVE",
"545 179 CURVE SMOOTH",
"545 269.235 OFFCURVE",
"509.998 327.257 OFFCURVE",
"431.216 360.194 CURVE",
"487.139 397.393 OFFCURVE",
"515 453.694 OFFCURVE",
"515 530 CURVE SMOOTH",
"515 680.417 OFFCURVE",
"409.422 745 OFFCURVE",
"180 745 CURVE SMOOTH",
"32.534 745 LINE SMOOTH",
"9.411 745 OFFCURVE",
"-6.509 738.491 OFFCURVE",
"-22.5 722.5 CURVE SMOOTH",
"-38.491 706.509 OFFCURVE",
"-45 690.589 OFFCURVE",
"-45 667.466 CURVE SMOOTH",
"-45 32.534 LINE SMOOTH",
"-45 9.411 OFFCURVE",
"-38.491 -6.509 OFFCURVE",
"-22.5 -22.5 CURVE SMOOTH",
"-6.509 -38.491 OFFCURVE",
"9.411 -45 OFFCURVE",
"32.534 -45 CURVE SMOOTH"
);
},
{
closed = 1;
nodes = (
"45 305 LINE",
"184 305.008 LINE SMOOTH",
"394.303 305 OFFCURVE",
"455 273.557 OFFCURVE",
"455 179 CURVE SMOOTH",
"455 81.387 OFFCURVE",
"388.404 45 OFFCURVE",
"180 45 CURVE SMOOTH",
"45 45 LINE"
);
},
{
closed = 1;
nodes = (
"45 655 LINE",
"180 655 LINE SMOOTH",
"363.283 655 OFFCURVE",
"425 620.513 OFFCURVE",
"425 530 CURVE SMOOTH",
"425 435.633 OFFCURVE",
"356.845 395 OFFCURVE",
"180 395 CURVE SMOOTH",
"45 395 LINE"
);
}
);
width = 600;
},
{
associatedMasterId = "E2083702-67E7-471D-AE09-DB685EF5235E";
layerId = "45508ED9-614E-4FE5-B21F-AB96C8B036E2";
name = "Nov 13 18, 21:49";
paths = (
{
closed = 0;
nodes = (
"0 350 LINE",
"180 350 LINE SMOOTH",
"370 350 OFFCURVE",
"470 400 OFFCURVE",
"470 530 CURVE SMOOTH",
"470 660 OFFCURVE",
"370 700 OFFCURVE",
"180 700 CURVE",
"0 700 LINE",
"0 0 LINE",
"180 0 LINE",
"400 0 OFFCURVE",
"500 44 OFFCURVE",
"500 179 CURVE SMOOTH",
"500 314 OFFCURVE",
"400 350 OFFCURVE",
"184 350 CURVE SMOOTH"
);
}
);
width = 600;
}
);
unicode = 0042;
},
{
color = 6;
glyphname = C;
lastChange = "2018-11-20 10:46:38 +0000";
layers = (
{
layerId = "E2083702-67E7-471D-AE09-DB685EF5235E";
paths = (
{
closed = 1;
nodes = (
"625.467 -45 OFFCURVE",
"774.552 20.022 OFFCURVE",
"860.357 131.161 CURVE SMOOTH",
"866.396 138.82 OFFCURVE",
"870 148.489 OFFCURVE",
"870 159 CURVE SMOOTH",
"870 183.853 OFFCURVE",
"849.853 204 OFFCURVE",
"825 204 CURVE SMOOTH",
"810.371 204 OFFCURVE",
"797.373 197.019 OFFCURVE",
"789.154 186.207 CURVE SMOOTH",
"720.31 96.994 OFFCURVE",
"599.115 45 OFFCURVE",
"458 45 CURVE SMOOTH",
"243.304 45 OFFCURVE",
"65 184.761 OFFCURVE",
"65 350 CURVE SMOOTH",
"65 515.239 OFFCURVE",
"243.304 655 OFFCURVE",
"458 655 CURVE SMOOTH",
"554.721 655 OFFCURVE",
"645.449 627.016 OFFCURVE",
"715.808 576.673 CURVE",
"551.058 457.774 LINE SMOOTH",
"539.529 449.626 OFFCURVE",
"532 436.192 OFFCURVE",
"532 421 CURVE SMOOTH",
"532 396.147 OFFCURVE",
"552.147 376 OFFCURVE",
"577 376 CURVE SMOOTH",
"586.976 376 OFFCURVE",
"596.193 379.247 OFFCURVE",
"603.654 384.74 CURVE SMOOTH",
"788.152 517.892 LINE SMOOTH",
"807.332 531.734 OFFCURVE",
"816.062 547.353 OFFCURVE",
"817.804 570.942 CURVE SMOOTH",
"817.919 572.501 LINE SMOOTH",
"819.672 596.246 OFFCURVE",
"813.604 613.277 OFFCURVE",
"795.36 628.786 CURVE SMOOTH",
"706.5 702.783 OFFCURVE",
"584.771 745 OFFCURVE",
"458 745 CURVE SMOOTH",
"193.949 745 OFFCURVE",
"-25 567.119 OFFCURVE",
"-25 350 CURVE SMOOTH",
"-25 132.881 OFFCURVE",
"193.949 -45 OFFCURVE",
"458 -45 CURVE SMOOTH"
);
}
);
width = 845;
},
{
associatedMasterId = "E2083702-67E7-471D-AE09-DB685EF5235E";
layerId = "935A29D4-80F0-448A-9611-E0ADBFF24E71";
name = path;
paths = (
{
closed = 0;
nodes = (
"825 159 LINE",
"748 59 OFFCURVE",
"613 0 OFFCURVE",
"458 0 CURVE SMOOTH",
"221 0 OFFCURVE",
"20 157 OFFCURVE",
"20 350 CURVE SMOOTH",
"20 543 OFFCURVE",
"221 700 OFFCURVE",
"458 700 CURVE SMOOTH",
"591 700 OFFCURVE",
"710 651 OFFCURVE",
"789 574 CURVE",
"577 421 LINE"
);
}
);
width = 845;
}
);
unicode = 0043;
},
{
color = 6;
glyphname = D;
lastChange = "2018-11-20 10:46:38 +0000";
layers = (
{
layerId = "E2083702-67E7-471D-AE09-DB685EF5235E";
paths = (
{
closed = 1;
nodes = (
"180 -45 LINE SMOOTH",
"505.821 -45 OFFCURVE",
"675 89.384 OFFCURVE",
"675 350 CURVE SMOOTH",
"675 610.616 OFFCURVE",
"505.821 745 OFFCURVE",
"180 745 CURVE SMOOTH",
"32.534 745 LINE SMOOTH",
"9.411 745 OFFCURVE",
"-6.509 738.491 OFFCURVE",
"-22.5 722.5 CURVE SMOOTH",
"-38.491 706.509 OFFCURVE",
"-45 690.589 OFFCURVE",
"-45 667.466 CURVE SMOOTH",
"-45 32.534 LINE SMOOTH",
"-45 9.411 OFFCURVE",
"-38.491 -6.509 OFFCURVE",
"-22.5 -22.5 CURVE SMOOTH",
"-6.509 -38.491 OFFCURVE",
"9.411 -45 OFFCURVE",
"32.534 -45 CURVE SMOOTH"
);
},
{
closed = 1;
nodes = (
"45 655 LINE",
"180 655 LINE SMOOTH",
"455.912 655 OFFCURVE",
"585 558.282 OFFCURVE",
"585 350 CURVE SMOOTH",
"585 141.718 OFFCURVE",
"455.912 45 OFFCURVE",
"180 45 CURVE SMOOTH",
"45 45 LINE"
);
}
);
width = 600;
},
{
associatedMasterId = "E2083702-67E7-471D-AE09-DB685EF5235E";
layerId = "6D4DD2B5-B371-40D3-9D81-F05B9E1D2137";
name = "Nov 13 18, 21:44";
paths = (
{
closed = 1;
nodes = (
"0 700 LINE",
"180 700 LINE",
"400 700 OFFCURVE",
"630 640 OFFCURVE",
"630 350 CURVE SMOOTH",
"630 60 OFFCURVE",
"400 0 OFFCURVE",
"180 0 CURVE SMOOTH",
"0 0 LINE"
);
}
);
width = 600;
}
);
unicode = 0044;
},
{
color = 6;
glyphname = E;
lastChange = "2018-11-20 10:46:38 +0000";
layers = (
{
layerId = "E2083702-67E7-471D-AE09-DB685EF5235E";
paths = (
{
closed = 1;
nodes = (
"450 -45 LINE SMOOTH",
"474.853 -45 OFFCURVE",
"495 -24.853 OFFCURVE",
"495 0 CURVE SMOOTH",
"495 24.853 OFFCURVE",
"474.853 45 OFFCURVE",
"450 45 CURVE SMOOTH",
"125 45 LINE",
"125 305 LINE",
"400 305 LINE SMOOTH",
"424.853 305 OFFCURVE",
"445 325.147 OFFCURVE",
"445 350 CURVE SMOOTH",
"445 374.853 OFFCURVE",
"424.853 395 OFFCURVE",
"400 395 CURVE SMOOTH",
"125 395 LINE",
"125 655 LINE",
"450 655 LINE SMOOTH",
"474.853 655 OFFCURVE",
"495 675.147 OFFCURVE",
"495 700 CURVE SMOOTH",
"495 724.853 OFFCURVE",
"474.853 745 OFFCURVE",
"450 745 CURVE SMOOTH",
"112.534 745 LINE SMOOTH",
"89.411 745 OFFCURVE",
"73.491 738.491 OFFCURVE",
"57.5 722.5 CURVE SMOOTH",
"41.509 706.509 OFFCURVE",
"35 690.589 OFFCURVE",
"35 667.466 CURVE SMOOTH",
"35 32.534 LINE SMOOTH",
"35 9.411 OFFCURVE",
"41.509 -6.509 OFFCURVE",
"57.5 -22.5 CURVE SMOOTH",
"73.491 -38.491 OFFCURVE",
"89.411 -45 OFFCURVE",
"112.534 -45 CURVE SMOOTH"
);
}
);
width = 600;
},
{
associatedMasterId = "E2083702-67E7-471D-AE09-DB685EF5235E";
layerId = "9378D0BF-9129-47E4-84F2-819C0D971155";
name = "Nov 13 18, 14:19";
paths = (
{
closed = 0;
nodes = (
"450 700 LINE",
"80 700 LINE",
"80 0 LINE",
"450 0 LINE"
);
},
{
closed = 0;
nodes = (
"400 350 LINE",
"80 350 LINE"
);
}
);
width = 600;
}
);
unicode = 0045;
},
{
color = 6;
glyphname = F;
lastChange = "2018-11-20 10:46:38 +0000";
layers = (
{
layerId = "E2083702-67E7-471D-AE09-DB685EF5235E";
paths = (
{
closed = 1;
nodes = (
"104.853 -45 OFFCURVE",
"125 -24.853 OFFCURVE",
"125 0 CURVE SMOOTH",
"125 305 LINE",
"400 305 LINE SMOOTH",
"424.853 305 OFFCURVE",
"445 325.147 OFFCURVE",
"445 350 CURVE SMOOTH",
"445 374.853 OFFCURVE",
"424.853 395 OFFCURVE",
"400 395 CURVE SMOOTH",
"125 395 LINE",
"125 655 LINE",
"450 655 LINE SMOOTH",
"474.853 655 OFFCURVE",
"495 675.147 OFFCURVE",
"495 700 CURVE SMOOTH",
"495 724.853 OFFCURVE",
"474.853 745 OFFCURVE",
"450 745 CURVE SMOOTH",
"112.534 745 LINE SMOOTH",
"89.411 745 OFFCURVE",
"73.491 738.491 OFFCURVE",
"57.5 722.5 CURVE SMOOTH",
"41.509 706.509 OFFCURVE",
"35 690.589 OFFCURVE",
"35 667.466 CURVE SMOOTH",
"35 0 LINE SMOOTH",
"35 -24.853 OFFCURVE",
"55.147 -45 OFFCURVE",
"80 -45 CURVE SMOOTH"
);
}
);
width = 600;
},
{
associatedMasterId = "E2083702-67E7-471D-AE09-DB685EF5235E";
layerId = "9AC23CB4-70E3-461D-B8B2-DECB75ABED2C";
name = "Nov 13 18, 14:20";
paths = (
{
closed = 0;
nodes = (
"80 0 LINE",
"80 700 LINE",
"500 700 LINE",
"288 547 LINE"
);
},
{
closed = 0;
nodes = (
"450 350 LINE",
"80 350 LINE"
);
}
);
width = 600;
},
{
associatedMasterId = "E2083702-67E7-471D-AE09-DB685EF5235E";
layerId = "EB3E7163-1D7D-45B8-829B-5319FD4778D2";
name = "Nov 13 18, 15:06";
paths = (
{
closed = 0;
nodes = (
"450 700 LINE",
"80 700 LINE",
"80 0 LINE"
);
},
{
closed = 0;
nodes = (
"400 350 LINE",
"80 350 LINE"
);
}
);
width = 600;
}
);
unicode = 0046;
},
{
color = 6;
glyphname = G;
lastChange = "2018-11-20 10:46:38 +0000";
layers = (
{
layerId = "E2083702-67E7-471D-AE09-DB685EF5235E";
paths = (
{
closed = 1;
nodes = (
"399.26 -45 OFFCURVE",
"538.117 14.303 OFFCURVE",
"627 108.769 CURVE",
"627 0 LINE SMOOTH",
"627 -24.853 OFFCURVE",
"647.147 -45 OFFCURVE",
"672 -45 CURVE SMOOTH",
"696.853 -45 OFFCURVE",
"717 -24.853 OFFCURVE",
"717 0 CURVE SMOOTH",
"717 242.466 LINE SMOOTH",
"717 265.589 OFFCURVE",
"710.491 281.509 OFFCURVE",
"694.5 297.5 CURVE SMOOTH",
"678.509 313.491 OFFCURVE",
"662.589 320 OFFCURVE",
"639.466 320 CURVE SMOOTH",
"365 320 LINE SMOOTH",
"340.147 320 OFFCURVE",
"320 299.853 OFFCURVE",
"320 275 CURVE SMOOTH",
"320 250.147 OFFCURVE",
"340.147 230 OFFCURVE",
"365 230 CURVE SMOOTH",
"605.33 230 LINE",
"544.685 120.33 OFFCURVE",
"404.861 45 OFFCURVE",
"248 45 CURVE SMOOTH",
"31.521 45 OFFCURVE",
"-144 182.936 OFFCURVE",
"-144 350 CURVE SMOOTH",
"-144 517.064 OFFCURVE",
"31.521 655 OFFCURVE",
"248 655 CURVE SMOOTH",
"390.564 655 OFFCURVE",
"521.537 593.093 OFFCURVE",
"590.775 493.709 CURVE SMOOTH",
"598.873 481.813 OFFCURVE",
"612.524 474 OFFCURVE",
"628 474 CURVE SMOOTH",
"652.853 474 OFFCURVE",
"673 494.147 OFFCURVE",
"673 519 CURVE SMOOTH",
"673 528.755 OFFCURVE",
"669.896 537.785 OFFCURVE",
"664.621 545.156 CURVE SMOOTH",
"578.641 668.562 OFFCURVE",
"418.857 745 OFFCURVE",
"248 745 CURVE SMOOTH",
"-17.726 745 OFFCURVE",
"-234 568.928 OFFCURVE",
"-234 350 CURVE SMOOTH",
"-234 131.072 OFFCURVE",
"-17.726 -45 OFFCURVE",
"248 -45 CURVE SMOOTH"
);
}
);
width = 600;
},
{
associatedMasterId = "E2083702-67E7-471D-AE09-DB685EF5235E";
layerId = "D866EB9B-F772-4146-AE64-071B688D13A8";
name = "Nov 13 18, 15:05";
paths = (
{
closed = 0;
nodes = (
"628 519 LINE",
"553 627 OFFCURVE",
"410 700 OFFCURVE",
"248 700 CURVE SMOOTH",
"7 700 OFFCURVE",
"-189 543 OFFCURVE",
"-189 350 CURVE SMOOTH",
"-189 157 OFFCURVE",
"7 0 OFFCURVE",
"248 0 CURVE SMOOTH",
"454 0 OFFCURVE",
"629 118 OFFCURVE",
"672 275 CURVE"
);
},
{
closed = 0;
nodes = (
"365 275 LINE",
"672 275 LINE",
"672 0 LINE"
);
}
);
width = 600;
}
);
unicode = 0047;
},
{
color = 6;
glyphname = H;
lastChange = "2018-11-20 10:46:38 +0000";
layers = (
{
layerId = "E2083702-67E7-471D-AE09-DB685EF5235E";
paths = (
{
closed = 1;
nodes = (
"94.853 -45 OFFCURVE",
"115 -24.853 OFFCURVE",
"115 0 CURVE SMOOTH",
"115 305 LINE",
"465 305 LINE",
"465 0 LINE SMOOTH",
"465 -25 OFFCURVE",
"485 -45 OFFCURVE",
"510 -45 CURVE SMOOTH",
"535 -45 OFFCURVE",
"555 -25 OFFCURVE",
"555 0 CURVE SMOOTH",
"555 700 LINE SMOOTH",
"555 725 OFFCURVE",
"535 745 OFFCURVE",
"510 745 CURVE SMOOTH",
"485 745 OFFCURVE",
"465 725 OFFCURVE",
"465 700 CURVE SMOOTH",
"465 395 LINE",
"115 395 LINE",
"115 700 LINE SMOOTH",
"115 724.853 OFFCURVE",
"94.853 745 OFFCURVE",
"70 745 CURVE SMOOTH",
"45.147 745 OFFCURVE",
"25 724.853 OFFCURVE",
"25 700 CURVE SMOOTH",
"25 0 LINE SMOOTH",
"25 -24.853 OFFCURVE",
"45.147 -45 OFFCURVE",
"70 -45 CURVE SMOOTH"
);
}
);
width = 600;
},
{
associatedMasterId = "E2083702-67E7-471D-AE09-DB685EF5235E";
layerId = "4CA767A7-C11E-4A79-987E-B3D72894B3C9";
name = "Nov 13 18, 12:59";
paths = (
{
closed = 0;
nodes = (
"70 700 LINE",
"70 0 LINE"
);
},
{
closed = 0;
nodes = (
"440 700 LINE",
"440 0 LINE"
);
},
{
closed = 0;
nodes = (
"70 350 LINE",
"440 350 LINE"
);
}
);
width = 600;
}
);
unicode = 0048;
},
{
color = 6;
glyphname = I;
lastChange = "2018-11-20 10:46:38 +0000";
layers = (
{
layerId = "E2083702-67E7-471D-AE09-DB685EF5235E";
paths = (
{
closed = 1;
nodes = (
"300 -45 LINE SMOOTH",
"324.853 -45 OFFCURVE",
"345 -24.853 OFFCURVE",
"345 0 CURVE SMOOTH",
"345 24.853 OFFCURVE",
"324.853 45 OFFCURVE",
"300 45 CURVE SMOOTH",
"245 45 LINE",
"245 655 LINE",
"300 655 LINE SMOOTH",
"324.853 655 OFFCURVE",
"345 675.147 OFFCURVE",
"345 700 CURVE SMOOTH",
"345 724.853 OFFCURVE",
"324.853 745 OFFCURVE",
"300 745 CURVE SMOOTH",
"100 745 LINE SMOOTH",
"75.147 745 OFFCURVE",
"55 724.853 OFFCURVE",
"55 700 CURVE SMOOTH",
"55 675.147 OFFCURVE",
"75.147 655 OFFCURVE",
"100 655 CURVE SMOOTH",
"155 655 LINE",
"155 45 LINE",
"100 45 LINE SMOOTH",
"75.147 45 OFFCURVE",
"55 24.853 OFFCURVE",
"55 0 CURVE SMOOTH",
"55 -24.853 OFFCURVE",
"75.147 -45 OFFCURVE",
"100 -45 CURVE SMOOTH"
);
}
);
width = 600;
},
{
associatedMasterId = "E2083702-67E7-471D-AE09-DB685EF5235E";
layerId = "7AC97260-73DB-4960-93F3-9564DABD8E9F";
name = "Nov 13 18, 14:52";
paths = (
{
closed = 0;
nodes = (
"200 700 LINE",
"200 0 LINE"
);
},
{
closed = 0;
nodes = (
"100 700 LINE",
"300 700 LINE"
);
},
{
closed = 0;
nodes = (
"100 0 LINE",
"300 0 LINE"
);
}
);
width = 600;
}
);
unicode = 0049;
},
{
color = 6;
glyphname = J;
lastChange = "2018-11-20 10:46:38 +0000";
layers = (
{
layerId = "E2083702-67E7-471D-AE09-DB685EF5235E";
paths = (
{
closed = 1;
nodes = (
"326.201 -45 OFFCURVE",
"395 43.949 OFFCURVE",
"395 230 CURVE SMOOTH",
"395 667.466 LINE SMOOTH",
"395 690.589 OFFCURVE",
"388.491 706.509 OFFCURVE",
"372.5 722.5 CURVE SMOOTH",
"356.509 738.491 OFFCURVE",
"340.589 745 OFFCURVE",
"317.466 745 CURVE SMOOTH",
"175 745 LINE SMOOTH",
"150.147 745 OFFCURVE",
"130 724.853 OFFCURVE",
"130 700 CURVE SMOOTH",
"130 675.147 OFFCURVE",
"150.147 655 OFFCURVE",
"175 655 CURVE SMOOTH",
"305 655 LINE",
"305 230 LINE SMOOTH",
"305 91.118 OFFCURVE",
"271.243 45 OFFCURVE",
"175 45 CURVE SMOOTH",
"78.757 45 OFFCURVE",
"45 91.118 OFFCURVE",
"45 230 CURVE SMOOTH",
"45 254.853 OFFCURVE",
"24.853 275 OFFCURVE",
"0 275 CURVE SMOOTH",
"-24.853 275 OFFCURVE",
"-45 254.853 OFFCURVE",
"-45 230 CURVE SMOOTH",
"-45 43.949 OFFCURVE",
"23.799 -45 OFFCURVE",
"175 -45 CURVE SMOOTH"
);
}
);
width = 600;
},
{
associatedMasterId = "E2083702-67E7-471D-AE09-DB685EF5235E";
layerId = "213C35F4-7BF8-44CA-8EE2-B9F502FC8E99";
name = "Nov 13 18, 21:42";
paths = (
{
closed = 0;
nodes = (
"0 230 LINE SMOOTH",
"0 90 OFFCURVE",
"35 0 OFFCURVE",
"175 0 CURVE SMOOTH",
"315 0 OFFCURVE",
"350 90 OFFCURVE",
"350 230 CURVE",
"350 700 LINE",
"175 700 LINE"
);
}
);
width = 600;
}
);
unicode = 004A;
},
{
color = 6;
glyphname = K;
lastChange = "2018-11-20 10:46:38 +0000";
layers = (
{
layerId = "E2083702-67E7-471D-AE09-DB685EF5235E";
paths = (
{
closed = 1;
nodes = (
"474.853 -45 OFFCURVE",
"495 -24.853 OFFCURVE",
"495 0 CURVE SMOOTH",
"495 8.099 OFFCURVE",
"492.86 15.699 OFFCURVE",
"489.115 22.264 CURVE SMOOTH",
"298.766 370.601 LINE",
"357.288 474.831 OFFCURVE",
"436.779 574.711 OFFCURVE",
"552.686 666.523 CURVE SMOOTH",
"563.225 674.759 OFFCURVE",
"570 687.588 OFFCURVE",
"570 702 CURVE SMOOTH",
"570 726.853 OFFCURVE",
"549.853 747 OFFCURVE",
"525 747 CURVE SMOOTH",
"514.309 747 OFFCURVE",
"504.49 743.272 OFFCURVE",
"496.77 737.045 CURVE SMOOTH",
"320.992 597.797 OFFCURVE",
"221.498 438.27 OFFCURVE",
"155 278.229 CURVE",
"155 700 LINE SMOOTH",
"155 724.853 OFFCURVE",
"134.853 745 OFFCURVE",
"110 745 CURVE SMOOTH",
"85.147 745 OFFCURVE",
"65 724.853 OFFCURVE",
"65 700 CURVE SMOOTH",
"65 42.105 LINE SMOOTH",
"65 14.172 OFFCURVE",
"79.041 -1.923 OFFCURVE",
"106.716 -5.714 CURVE SMOOTH",
"111.689 -6.395 LINE SMOOTH",
"139.335 -10.181 OFFCURVE",
"157.078 1.408 OFFCURVE",
"164.782 28.333 CURVE SMOOTH",
"188.382 110.441 OFFCURVE",
"214.56 192.321 OFFCURVE",
"249.869 272.396 CURVE",
"410.099 -20.825 LINE SMOOTH",
"417.614 -35.194 OFFCURVE",
"432.661 -45 OFFCURVE",
"450 -45 CURVE SMOOTH"
);
},
{
closed = 1;
nodes = (
"65 1 LINE",
"65 -24 OFFCURVE",
"85 -44 OFFCURVE",
"110 -44 CURVE SMOOTH",
"135 -44 OFFCURVE",
"155 -24 OFFCURVE",
"155 1 CURVE",
"167 36 LINE",
"65 125 LINE"
);
}
);
width = 600;
},
{
associatedMasterId = "E2083702-67E7-471D-AE09-DB685EF5235E";
layerId = "B85A98B3-1513-4614-9B0B-A1CF6198F6F5";
name = "Nov 13 18, 14:59";
paths = (
{
closed = 0;
nodes = (
"110 700 LINE",
"110 0 LINE",
"177 240 OFFCURVE",
"261 493 OFFCURVE",
"525 702 CURVE"
);
},
{
closed = 0;
nodes = (
"450 0 LINE",
"250 366 LINE"
);
}
);
width = 600;
}
);
unicode = 004B;
},
{
color = 6;
glyphname = L;
lastChange = "2018-11-20 10:46:38 +0000";
layers = (
{
layerId = "E2083702-67E7-471D-AE09-DB685EF5235E";
paths = (
{
closed = 1;
nodes = (
"340 -45 LINE SMOOTH",
"364.853 -45 OFFCURVE",
"385 -24.853 OFFCURVE",
"385 0 CURVE SMOOTH",
"385 24.853 OFFCURVE",
"364.853 45 OFFCURVE",
"340 45 CURVE SMOOTH",
"135 45 LINE",
"135 700 LINE SMOOTH",
"135 724.853 OFFCURVE",
"114.853 745 OFFCURVE",
"90 745 CURVE SMOOTH",
"65.147 745 OFFCURVE",
"45 724.853 OFFCURVE",
"45 700 CURVE SMOOTH",
"45 32.534 LINE SMOOTH",
"45 9.411 OFFCURVE",
"51.509 -6.509 OFFCURVE",
"67.5 -22.5 CURVE SMOOTH",
"83.491 -38.491 OFFCURVE",
"99.411 -45 OFFCURVE",
"122.534 -45 CURVE SMOOTH"
);
}
);
width = 600;
},
{
associatedMasterId = "E2083702-67E7-471D-AE09-DB685EF5235E";
layerId = "48974C2F-28E4-466C-999A-BDF634041D7A";
name = "Nov 13 18, 14:49";
paths = (
{
closed = 0;
nodes = (
"90 700 LINE",
"90 0 LINE",
"340 0 LINE"
);
}
);
width = 600;
}
);
unicode = 004C;
},
{
color = 6;
glyphname = M;
lastChange = "2018-11-20 10:46:38 +0000";
layers = (
{
layerId = "E2083702-67E7-471D-AE09-DB685EF5235E";
paths = (
{
closed = 1;
nodes = (
"24.853 -45 OFFCURVE",
"45 -24.853 OFFCURVE",
"45 0 CURVE SMOOTH",
"45 495.974 LINE",
"243.603 67.654 LINE SMOOTH",
"254.315 44.551 OFFCURVE",
"270.728 34.07 OFFCURVE",
"296.194 34.07 CURVE SMOOTH",
"303.806 34.07 LINE SMOOTH",
"329.272 34.07 OFFCURVE",
"345.685 44.551 OFFCURVE",
"356.397 67.654 CURVE SMOOTH",
"555 495.974 LINE",
"555 0 LINE SMOOTH",
"555 -24.853 OFFCURVE",
"575.147 -45 OFFCURVE",
"600 -45 CURVE SMOOTH",
"624.853 -45 OFFCURVE",
"645 -24.853 OFFCURVE",
"645 0 CURVE SMOOTH",
"645 659.427 LINE SMOOTH",
"645 686.638 OFFCURVE",
"631.951 702.878 OFFCURVE",
"605.379 708.739 CURVE SMOOTH",
"598.796 710.191 LINE SMOOTH",
"572.224 716.052 OFFCURVE",
"553.554 706.807 OFFCURVE",
"542.108 682.121 CURVE SMOOTH",
"300 159.976 LINE",
"57.892 682.121 LINE SMOOTH",
"46.446 706.807 OFFCURVE",
"27.776 716.052 OFFCURVE",
"1.204 710.191 CURVE SMOOTH",
"-5.379 708.739 LINE SMOOTH",
"-31.951 702.878 OFFCURVE",
"-45 686.638 OFFCURVE",
"-45 659.427 CURVE SMOOTH",
"-45 0 LINE SMOOTH",
"-45 -24.853 OFFCURVE",
"-24.853 -45 OFFCURVE",
"0 -45 CURVE SMOOTH"
);
}
);
width = 600;
},
{
associatedMasterId = "E2083702-67E7-471D-AE09-DB685EF5235E";
layerId = "4C1D43DF-8501-476F-8396-FC16AF097F88";
name = "Nov 13 18, 14:23";
paths = (
{
closed = 0;
nodes = (
"0 0 LINE",
"0 700 LINE",
"300 53 LINE",
"600 700 LINE",
"600 0 LINE"
);
}
);
width = 600;
}
);
unicode = 004D;
},
{
color = 6;
glyphname = N;
lastChange = "2018-11-20 10:46:38 +0000";
layers = (
{
layerId = "E2083702-67E7-471D-AE09-DB685EF5235E";
paths = (
{
closed = 1;
nodes = (
"74.853 -45 OFFCURVE",
"95 -24.853 OFFCURVE",
"95 0 CURVE SMOOTH",
"95 537.536 LINE",
"411.022 10.834 LINE SMOOTH",
"424.789 -12.112 OFFCURVE",
"443.82 -19.715 OFFCURVE",
"469.609 -12.573 CURVE SMOOTH",
"476.804 -10.579 LINE SMOOTH",
"502.593 -3.437 OFFCURVE",
"515 12.875 OFFCURVE",
"515 39.634 CURVE SMOOTH",
"515 700 LINE SMOOTH",
"515 724.853 OFFCURVE",
"494.853 745 OFFCURVE",
"470 745 CURVE SMOOTH",
"445.147 745 OFFCURVE",
"425 724.853 OFFCURVE",
"425 700 CURVE SMOOTH",
"425 162.464 LINE",
"108.978 689.166 LINE SMOOTH",
"95.211 712.112 OFFCURVE",
"76.18 719.715 OFFCURVE",
"50.391 712.573 CURVE SMOOTH",
"43.196 710.579 LINE SMOOTH",
"17.407 703.437 OFFCURVE",
"5 687.125 OFFCURVE",
"5 660.366 CURVE SMOOTH",
"5 0 LINE SMOOTH",
"5 -24.853 OFFCURVE",
"25.147 -45 OFFCURVE",
"50 -45 CURVE SMOOTH"
);
}
);
width = 600;
},
{
associatedMasterId = "E2083702-67E7-471D-AE09-DB685EF5235E";
layerId = "F81F1C6B-D17F-454A-B24E-25465580DC09";
name = "Nov 13 18, 14:24";
paths = (
{
closed = 0;
nodes = (
"50 0 LINE",
"50 700 LINE",
"470 0 LINE",
"470 700 LINE"
);
}
);
visible = 1;
width = 600;
}
);
unicode = 004E;
},
{
color = 6;
glyphname = O;
lastChange = "2018-11-20 10:46:38 +0000";
layers = (
{
layerId = "E2083702-67E7-471D-AE09-DB685EF5235E";
paths = (
{
closed = 1;
nodes = (
"745 -45 OFFCURVE",
"961 132 OFFCURVE",
"961 350 CURVE SMOOTH",
"961 568 OFFCURVE",
"745 745 OFFCURVE",
"482 745 CURVE SMOOTH",
"216 745 OFFCURVE",
"0 569 OFFCURVE",
"0 350 CURVE SMOOTH",
"0 131 OFFCURVE",
"216 -45 OFFCURVE",
"482 -45 CURVE SMOOTH"
);
},
{
closed = 1;
nodes = (
"266 45 OFFCURVE",
"90 183 OFFCURVE",
"90 350 CURVE SMOOTH",
"90 517 OFFCURVE",
"266 655 OFFCURVE",
"482 655 CURVE SMOOTH",
"696 655 OFFCURVE",
"871 517 OFFCURVE",
"871 350 CURVE SMOOTH",
"871 183 OFFCURVE",
"696 45 OFFCURVE",
"482 45 CURVE SMOOTH"
);
}
);
width = 961;
},
{
associatedMasterId = "E2083702-67E7-471D-AE09-DB685EF5235E";
layerId = "1A375AFC-51D4-4005-B0A6-3EFE269D326C";
name = "Nov 13 18, 15:02";
paths = (
{
closed = 1;
nodes = (
"486 0 OFFCURVE",
"682 157 OFFCURVE",
"682 350 CURVE SMOOTH",
"682 543 OFFCURVE",
"486 700 OFFCURVE",
"248 700 CURVE SMOOTH",
"7 700 OFFCURVE",
"-189 543 OFFCURVE",
"-189 350 CURVE SMOOTH",
"-189 157 OFFCURVE",
"7 0 OFFCURVE",
"248 0 CURVE SMOOTH"
);
}
);
width = 600;
},
{
associatedMasterId = "E2083702-67E7-471D-AE09-DB685EF5235E";
layerId = "3A155FA4-8AF7-49FA-855F-D9E0BC720D79";
name = "Nov 13 18, 15:02";
paths = (
{
closed = 1;
nodes = (
"453 0 OFFCURVE",
"621 157 OFFCURVE",
"621 350 CURVE SMOOTH",
"621 543 OFFCURVE",
"453 700 OFFCURVE",
"248 700 CURVE SMOOTH",
"40 700 OFFCURVE",
"-128 543 OFFCURVE",
"-128 350 CURVE SMOOTH",
"-128 157 OFFCURVE",
"40 0 OFFCURVE",
"248 0 CURVE SMOOTH"
);
}
);
width = 600;
}
);
unicode = 004F;
},
{
color = 6;
glyphname = P;
lastChange = "2018-11-20 10:46:38 +0000";
layers = (
{
layerId = "E2083702-67E7-471D-AE09-DB685EF5235E";
paths = (
{
closed = 1;
nodes = (
"124.853 -45 OFFCURVE",
"145 -24.853 OFFCURVE",
"145 0 CURVE SMOOTH",
"145 335 LINE",
"340.523 335.003 LINE SMOOTH",
"497.58 336.829 OFFCURVE",
"596 413.679 OFFCURVE",
"596 540 CURVE SMOOTH",
"596 663.647 OFFCURVE",
"490.903 745 OFFCURVE",
"340 745 CURVE SMOOTH",
"132.534 745 LINE SMOOTH",
"109.411 745 OFFCURVE",
"93.491 738.491 OFFCURVE",
"77.5 722.5 CURVE SMOOTH",
"61.509 706.509 OFFCURVE",
"55 690.589 OFFCURVE",
"55 667.466 CURVE SMOOTH",
"55 0 LINE SMOOTH",
"55 -24.853 OFFCURVE",
"75.147 -45 OFFCURVE",
"100 -45 CURVE SMOOTH"
);
},
{
closed = 1;
nodes = (
"145 655 LINE",
"340 655 LINE SMOOTH",
"441.454 655 OFFCURVE",
"506 610.537 OFFCURVE",
"506 540 CURVE SMOOTH",
"506 466.717 OFFCURVE",
"448.19 426.318 OFFCURVE",
"339.707 425 CURVE SMOOTH",
"145 425 LINE"
);
}
);
width = 600;
},
{
associatedMasterId = "E2083702-67E7-471D-AE09-DB685EF5235E";
layerId = "180A0195-082D-416D-9F9B-BACBE38B396F";
name = "Nov 13 18, 14:55";
paths = (
{
closed = 0;
nodes = (
"100 0 LINE",
"100 700 LINE",
"340 700 LINE",
"415 700 OFFCURVE",
"551 670 OFFCURVE",
"551 540 CURVE SMOOTH",
"551 410 OFFCURVE",
"426 381 OFFCURVE",
"340 380 CURVE",
"100 380 LINE"
);
}
);
width = 600;
}
);
unicode = 0050;
},
{
color = 6;
glyphname = Q;
lastChange = "2018-11-20 10:46:38 +0000";
layers = (
{
layerId = "E2083702-67E7-471D-AE09-DB685EF5235E";
paths = (
{
closed = 1;
nodes = (
"623.853 -159 OFFCURVE",
"644 -138.853 OFFCURVE",
"644 -114 CURVE SMOOTH",
"644 -102.302 OFFCURVE",
"639.536 -91.647 OFFCURVE",
"632.219 -83.644 CURVE SMOOTH",
"528.409 29.959 LINE",
"648.521 101.7 OFFCURVE",
"727 218.26 OFFCURVE",
"727 350 CURVE SMOOTH",
"727 568.35 OFFCURVE",
"511.411 745 OFFCURVE",
"248 745 CURVE SMOOTH",
"-17.726 745 OFFCURVE",
"-234 568.928 OFFCURVE",
"-234 350 CURVE SMOOTH",
"-234 131.072 OFFCURVE",
"-17.726 -45 OFFCURVE",
"248 -45 CURVE SMOOTH",
"317.532 -45 OFFCURVE",
"383.733 -32.691 OFFCURVE",
"443.515 -10.555 CURVE",
"565.781 -144.356 LINE SMOOTH",
"574.009 -153.355 OFFCURVE",
"585.845 -159 OFFCURVE",
"599 -159 CURVE SMOOTH"
);
},
{
closed = 1;
nodes = (
"31.521 45 OFFCURVE",
"-144 182.936 OFFCURVE",
"-144 350 CURVE SMOOTH",
"-144 517.064 OFFCURVE",
"31.521 655 OFFCURVE",
"248 655 CURVE SMOOTH",
"462.137 655 OFFCURVE",
"637 516.563 OFFCURVE",
"637 350 CURVE SMOOTH",
"637 246.22 OFFCURVE",
"569.116 153.359 OFFCURVE",
"466.144 98.099 CURVE",
"367.219 206.356 LINE SMOOTH",
"358.991 215.355 OFFCURVE",
"347.155 221 OFFCURVE",
"334 221 CURVE SMOOTH",
"309.147 221 OFFCURVE",
"289 200.853 OFFCURVE",
"289 176 CURVE SMOOTH",
"289 164.302 OFFCURVE",
"293.464 153.647 OFFCURVE",
"300.781 145.644 CURVE SMOOTH",
"376.846 62.403 LINE",
"336.486 51.145 OFFCURVE",
"293.115 45 OFFCURVE",
"248 45 CURVE SMOOTH"
);
}
);
width = 600;
},
{
associatedMasterId = "E2083702-67E7-471D-AE09-DB685EF5235E";
layerId = "D6FBA8EC-4400-4532-AD41-61F20D3DFAEF";
name = "Nov 13 18, 15:01";
paths = (
{
closed = 1;
nodes = (
"486 0 OFFCURVE",
"682 157 OFFCURVE",
"682 350 CURVE SMOOTH",
"682 543 OFFCURVE",
"486 700 OFFCURVE",
"248 700 CURVE SMOOTH",
"7 700 OFFCURVE",
"-189 543 OFFCURVE",
"-189 350 CURVE SMOOTH",
"-189 157 OFFCURVE",
"7 0 OFFCURVE",
"248 0 CURVE SMOOTH"
);
},
{
closed = 0;
nodes = (
"334 176 LINE",
"599 -114 LINE"
);
}
);
width = 600;
},
{
associatedMasterId = "E2083702-67E7-471D-AE09-DB685EF5235E";
layerId = "481F7791-05C1-41A5-8C54-44BB9185EB13";
name = "Nov 13 18, 15:01";
paths = (
{
closed = 1;
nodes = (
"424 0 OFFCURVE",
"540 157 OFFCURVE",
"540 350 CURVE SMOOTH",
"540 543 OFFCURVE",
"424 700 OFFCURVE",
"280 700 CURVE SMOOTH",
"138 700 OFFCURVE",
"20 543 OFFCURVE",
"20 350 CURVE SMOOTH",
"20 157 OFFCURVE",
"138 0 OFFCURVE",
"280 0 CURVE SMOOTH"
);
},
{
closed = 0;
nodes = (
"385 153 LINE",
"510 -101 LINE"
);
}
);
width = 600;
}
);
unicode = 0051;
},
{
color = 6;
glyphname = R;
lastChange = "2018-11-20 10:46:38 +0000";
layers = (
{
layerId = "E2083702-67E7-471D-AE09-DB685EF5235E";
paths = (
{
closed = 1;
nodes = (
"124.853 -45 OFFCURVE",
"145 -24.853 OFFCURVE",
"145 0 CURVE SMOOTH",
"145 335 LINE",
"340.523 335.003 LINE",
"343.335 335.044 LINE",
"456.91 -13.011 LINE SMOOTH",
"462.491 -31.52 OFFCURVE",
"479.671 -45 OFFCURVE",
"500 -45 CURVE SMOOTH",
"524.853 -45 OFFCURVE",
"545 -24.853 OFFCURVE",
"545 0 CURVE SMOOTH",
"545 5.243 OFFCURVE",
"544.103 10.277 OFFCURVE",
"542.455 14.956 CURVE SMOOTH",
"434.243 346.572 LINE",
"535.726 372.587 OFFCURVE",
"596 441.145 OFFCURVE",
"596 540 CURVE SMOOTH",
"596 663.647 OFFCURVE",
"490.903 745 OFFCURVE",
"340 745 CURVE SMOOTH",
"132.534 745 LINE SMOOTH",
"109.411 745 OFFCURVE",
"93.491 738.491 OFFCURVE",
"77.5 722.5 CURVE SMOOTH",
"61.509 706.509 OFFCURVE",
"55 690.589 OFFCURVE",
"55 667.466 CURVE SMOOTH",
"55 0 LINE SMOOTH",
"55 -24.853 OFFCURVE",
"75.147 -45 OFFCURVE",
"100 -45 CURVE SMOOTH"
);
},
{
closed = 1;
nodes = (
"145 655 LINE",
"340 655 LINE SMOOTH",
"441.454 655 OFFCURVE",
"506 610.537 OFFCURVE",
"506 540 CURVE SMOOTH",
"506 466.717 OFFCURVE",
"448.19 426.318 OFFCURVE",
"339.707 425 CURVE SMOOTH",
"145 425 LINE"
);
}
);
width = 600;
},
{
associatedMasterId = "E2083702-67E7-471D-AE09-DB685EF5235E";
layerId = "EB38D675-20E6-4F3B-8FE9-CF3EECA854A2";
name = "Nov 13 18, 14:56";
paths = (
{
closed = 0;
nodes = (
"100 0 LINE",
"100 700 LINE",
"340 700 LINE",
"415 700 OFFCURVE",
"551 670 OFFCURVE",
"551 540 CURVE SMOOTH",
"551 410 OFFCURVE",
"426 381 OFFCURVE",
"340 380 CURVE",
"100 380 LINE",
"500 0 LINE"
);
}
);
width = 600;
},
{
associatedMasterId = "E2083702-67E7-471D-AE09-DB685EF5235E";
layerId = "5EB139FE-F4C4-44AD-AF27-8BF8B78790F0";
name = "Nov 13 18, 14:57";
paths = (
{
closed = 0;
nodes = (
"100 0 LINE",
"100 700 LINE",
"340 700 LINE",
"415 700 OFFCURVE",
"551 670 OFFCURVE",
"551 540 CURVE SMOOTH",
"551 410 OFFCURVE",
"426 381 OFFCURVE",
"340 380 CURVE",
"100 380 LINE"
);
},
{
closed = 0;
nodes = (
"320 380 LINE",
"500 0 LINE"
);
}
);
width = 600;
},
{
associatedMasterId = "E2083702-67E7-471D-AE09-DB685EF5235E";
layerId = "9CC9877C-CAEB-471B-B363-595903AD9364";
name = "Nov 13 18, 14:57";
paths = (
{
closed = 0;
nodes = (
"100 0 LINE",
"100 700 LINE",
"340 700 LINE",
"415 700 OFFCURVE",
"551 670 OFFCURVE",
"551 540 CURVE SMOOTH",
"551 410 OFFCURVE",
"426 381 OFFCURVE",
"340 380 CURVE",
"100 380 LINE"
);
},
{
closed = 0;
nodes = (
"376 380 LINE",
"500 0 LINE"
);
}
);
width = 600;
}
);
unicode = 0052;
},
{
color = 6;
glyphname = S;
lastChange = "2018-11-20 10:46:38 +0000";
layers = (
{
layerId = "E2083702-67E7-471D-AE09-DB685EF5235E";
paths = (
{
closed = 1;
nodes = (
"390 -45 LINE SMOOTH",
"554.418 -45 OFFCURVE",
"645 31.484 OFFCURVE",
"645 175 CURVE SMOOTH",
"645 312.991 OFFCURVE",
"550.085 395 OFFCURVE",
"390 395 CURVE SMOOTH",
"210 395 LINE SMOOTH",
"98.887 395 OFFCURVE",
"45 438.283 OFFCURVE",
"45 525 CURVE SMOOTH",
"45 611.717 OFFCURVE",
"98.887 655 OFFCURVE",
"210 655 CURVE SMOOTH",
"600 655 LINE SMOOTH",
"624.853 655 OFFCURVE",
"645 675.147 OFFCURVE",
"645 700 CURVE SMOOTH",
"645 724.853 OFFCURVE",
"624.853 745 OFFCURVE",
"600 745 CURVE SMOOTH",
"210 745 LINE SMOOTH",
"49.915 745 OFFCURVE",
"-45 662.991 OFFCURVE",
"-45 525 CURVE SMOOTH",
"-45 387.009 OFFCURVE",
"49.915 305 OFFCURVE",
"210 305 CURVE SMOOTH",
"390 305 LINE SMOOTH",
"501.113 305 OFFCURVE",
"555 261.717 OFFCURVE",
"555 175 CURVE SMOOTH",
"555 84.532 OFFCURVE",
"506.869 45 OFFCURVE",
"390 45 CURVE SMOOTH",
"0 45 LINE SMOOTH",
"-24.853 45 OFFCURVE",
"-45 24.853 OFFCURVE",
"-45 0 CURVE SMOOTH",
"-45 -24.853 OFFCURVE",
"-24.853 -45 OFFCURVE",
"0 -45 CURVE SMOOTH"
);
}
);
width = 600;
},
{
associatedMasterId = "E2083702-67E7-471D-AE09-DB685EF5235E";
layerId = "C94531BF-8A1B-4112-BFBB-AEF82BB2DC67";
name = "Nov 13 18, 15:15";
paths = (
{
closed = 0;
nodes = (
"600 700 LINE",
"210 700 LINE",
"40 700 OFFCURVE",
"0 605 OFFCURVE",
"0 525 CURVE SMOOTH",
"0 445 OFFCURVE",
"40 350 OFFCURVE",
"210 350 CURVE",
"390 350 LINE",
"560 350 OFFCURVE",
"600 255 OFFCURVE",
"600 175 CURVE SMOOTH",
"600 85 OFFCURVE",
"560 0 OFFCURVE",
"390 0 CURVE SMOOTH",
"0 0 LINE"
);
}
);
width = 600;
}
);
unicode = 0053;
},
{
color = 6;
glyphname = T;
lastChange = "2018-11-20 10:46:38 +0000";
layers = (
{
layerId = "E2083702-67E7-471D-AE09-DB685EF5235E";
paths = (
{
closed = 1;
nodes = (
"224.853 -45 OFFCURVE",
"245 -24.853 OFFCURVE",
"245 0 CURVE SMOOTH",
"245 655 LINE",
"440 655 LINE SMOOTH",
"464.853 655 OFFCURVE",
"485 675.147 OFFCURVE",
"485 700 CURVE SMOOTH",
"485 724.853 OFFCURVE",
"464.853 745 OFFCURVE",
"440 745 CURVE SMOOTH",
"-40 745 LINE SMOOTH",
"-64.853 745 OFFCURVE",
"-85 724.853 OFFCURVE",
"-85 700 CURVE SMOOTH",
"-85 675.147 OFFCURVE",
"-64.853 655 OFFCURVE",
"-40 655 CURVE SMOOTH",
"155 655 LINE",
"155 0 LINE SMOOTH",
"155 -24.853 OFFCURVE",
"175.147 -45 OFFCURVE",
"200 -45 CURVE SMOOTH"
);
}
);
width = 600;
},
{
associatedMasterId = "E2083702-67E7-471D-AE09-DB685EF5235E";
layerId = "08E7ADD7-D767-42B6-BD24-3B99489F0A33";
name = "Nov 13 18, 14:51";
paths = (
{
closed = 0;
nodes = (
"-40 700 LINE",
"440 700 LINE"
);
},
{
closed = 0;
nodes = (
"200 700 LINE",
"200 0 LINE"
);
}
);
width = 600;
}
);
unicode = 0054;
},
{
color = 6;
glyphname = U;
lastChange = "2018-11-20 10:46:38 +0000";
layers = (
{
layerId = "E2083702-67E7-471D-AE09-DB685EF5235E";
paths = (
{
closed = 1;
nodes = (
"409.236 -45 OFFCURVE",
"495 56.257 OFFCURVE",
"495 270 CURVE SMOOTH",
"495 700 LINE SMOOTH",
"495 724.853 OFFCURVE",
"474.853 745 OFFCURVE",
"450 745 CURVE SMOOTH",
"425.147 745 OFFCURVE",
"405 724.853 OFFCURVE",
"405 700 CURVE SMOOTH",
"405 270 LINE SMOOTH",
"405 103.649 OFFCURVE",
"355.675 45 OFFCURVE",
"225 45 CURVE SMOOTH",
"94.325 45 OFFCURVE",
"45 103.649 OFFCURVE",
"45 270 CURVE SMOOTH",
"45 700 LINE SMOOTH",
"45 724.853 OFFCURVE",
"24.853 745 OFFCURVE",
"0 745 CURVE SMOOTH",
"-24.853 745 OFFCURVE",
"-45 724.853 OFFCURVE",
"-45 700 CURVE SMOOTH",
"-45 270 LINE SMOOTH",
"-45 56.257 OFFCURVE",
"40.764 -45 OFFCURVE",
"225 -45 CURVE SMOOTH"
);
}
);
width = 600;
},
{
associatedMasterId = "E2083702-67E7-471D-AE09-DB685EF5235E";
layerId = "FD64301D-D6FC-4AA3-AE3B-A5DD74C9D93A";
name = "Nov 13 18, 21:38";
paths = (
{
closed = 0;
nodes = (
"0 700 LINE",
"0 270 LINE",
"0 60 OFFCURVE",
"85 0 OFFCURVE",
"225 0 CURVE SMOOTH",
"365 0 OFFCURVE",
"450 60 OFFCURVE",
"450 270 CURVE",
"450 700 LINE"
);
}
);
visible = 1;
width = 600;
}
);
unicode = 0055;
},
{
color = 6;
glyphname = V;
lastChange = "2018-11-20 10:46:38 +0000";
layers = (
{
layerId = "E2083702-67E7-471D-AE09-DB685EF5235E";
paths = (
{
closed = 1;
nodes = (
"243.94 -14.595 LINE SMOOTH",
"270.208 -14.595 OFFCURVE",
"286.577 -2.903 OFFCURVE",
"295.096 21.945 CURVE SMOOTH",
"522.241 684.45 LINE SMOOTH",
"524.025 689.297 OFFCURVE",
"525 694.534 OFFCURVE",
"525 700 CURVE SMOOTH",
"525 724.853 OFFCURVE",
"504.853 745 OFFCURVE",
"480 745 CURVE SMOOTH",
"459.911 745 OFFCURVE",
"442.898 731.836 OFFCURVE",
"437.113 713.665 CURVE SMOOTH",
"240 138.752 LINE",
"42.887 713.664 LINE SMOOTH",
"37.102 731.836 OFFCURVE",
"20.089 745 OFFCURVE",
"0 745 CURVE SMOOTH",
"-24.853 745 OFFCURVE",
"-45 724.853 OFFCURVE",
"-45 700 CURVE SMOOTH",
"-45 694.534 OFFCURVE",
"-44.025 689.297 OFFCURVE",
"-42.241 684.45 CURVE SMOOTH",
"184.904 21.945 LINE SMOOTH",
"193.423 -2.903 OFFCURVE",
"209.792 -14.595 OFFCURVE",
"236.06 -14.595 CURVE SMOOTH"
);
}
);
width = 600;
},
{
associatedMasterId = "E2083702-67E7-471D-AE09-DB685EF5235E";
layerId = "8BD46472-D327-4283-A90B-8CC36B68D156";
name = "Nov 13 18, 14:53";
paths = (
{
closed = 0;
nodes = (
"0 700 LINE",
"240 0 LINE",
"480 700 LINE"
);
}
);
width = 600;
}
);
unicode = 0056;
},
{
color = 6;
glyphname = W;
lastChange = "2018-11-20 10:46:38 +0000";
layers = (
{
layerId = "E2083702-67E7-471D-AE09-DB685EF5235E";
paths = (
{
closed = 1;
nodes = (
"149.674 -14.562 OFFCURVE",
"166.636 -3.307 OFFCURVE",
"175.639 21.701 CURVE SMOOTH",
"300 367.147 LINE",
"424.361 21.701 LINE SMOOTH",
"433.364 -3.307 OFFCURVE",
"450.326 -14.562 OFFCURVE",
"476.867 -13.137 CURVE SMOOTH",
"484.521 -12.725 LINE SMOOTH",
"511.063 -11.3 OFFCURVE",
"526.723 1.706 OFFCURVE",
"532.995 27.535 CURVE SMOOTH",
"693.503 688.45 LINE SMOOTH",
"694.479 692.136 OFFCURVE",
"695 696.007 OFFCURVE",
"695 700 CURVE SMOOTH",
"695 724.853 OFFCURVE",
"674.853 745 OFFCURVE",
"650 745 CURVE SMOOTH",
"628.496 745 OFFCURVE",
"610.515 729.916 OFFCURVE",
"606.06 709.752 CURVE SMOOTH",
"471.614 156.149 LINE",
"355.341 479.129 LINE SMOOTH",
"346.484 503.73 OFFCURVE",
"330.105 515.242 OFFCURVE",
"303.958 515.242 CURVE SMOOTH",
"296.042 515.242 LINE SMOOTH",
"269.895 515.242 OFFCURVE",
"253.516 503.73 OFFCURVE",
"244.659 479.129 CURVE SMOOTH",
"128.386 156.149 LINE",
"-6.06 709.752 LINE SMOOTH",
"-10.515 729.916 OFFCURVE",
"-28.496 745 OFFCURVE",
"-50 745 CURVE SMOOTH",
"-74.853 745 OFFCURVE",
"-95 724.853 OFFCURVE",
"-95 700 CURVE SMOOTH",
"-95 696.007 OFFCURVE",
"-94.479 692.136 OFFCURVE",
"-93.503 688.45 CURVE SMOOTH",
"67.005 27.535 LINE SMOOTH",
"73.277 1.706 OFFCURVE",
"88.937 -11.3 OFFCURVE",
"115.479 -12.725 CURVE SMOOTH",
"123.133 -13.137 LINE SMOOTH"
);
}
);
width = 600;
},
{
associatedMasterId = "E2083702-67E7-471D-AE09-DB685EF5235E";
layerId = "49BE54BD-C761-4B6E-B7D2-BFFBEE779F42";
name = "Nov 13 18, 14:18";
paths = (
{
closed = 0;
nodes = (
"-50 700 LINE",
"120 0 LINE",
"300 500 LINE",
"480 0 LINE",
"650 700 LINE"
);
}
);
width = 600;
}
);
unicode = 0057;
},
{
color = 6;
glyphname = X;
lastChange = "2018-11-20 10:46:38 +0000";
layers = (
{
layerId = "E2083702-67E7-471D-AE09-DB685EF5235E";
paths = (
{
closed = 1;
nodes = (
"86.844 -45 OFFCURVE",
"101.526 -35.745 OFFCURVE",
"109.24 -22.043 CURVE SMOOTH",
"275 260.962 LINE",
"440.761 -22.044 LINE SMOOTH",
"448.474 -35.745 OFFCURVE",
"463.156 -45 OFFCURVE",
"480 -45 CURVE SMOOTH",
"504.853 -45 OFFCURVE",
"525 -24.853 OFFCURVE",
"525 0 CURVE SMOOTH",
"525 8.565 OFFCURVE",
"522.607 16.57 OFFCURVE",
"518.454 23.385 CURVE SMOOTH",
"327.151 350 LINE",
"518.454 676.615 LINE SMOOTH",
"522.607 683.43 OFFCURVE",
"525 691.435 OFFCURVE",
"525 700 CURVE SMOOTH",
"525 724.853 OFFCURVE",
"504.853 745 OFFCURVE",
"480 745 CURVE SMOOTH",
"463.156 745 OFFCURVE",
"448.474 735.745 OFFCURVE",
"440.761 722.044 CURVE SMOOTH",
"275 439.038 LINE",
"109.24 722.043 LINE SMOOTH",
"101.526 735.745 OFFCURVE",
"86.844 745 OFFCURVE",
"70 745 CURVE SMOOTH",
"45.147 745 OFFCURVE",
"25 724.853 OFFCURVE",
"25 700 CURVE SMOOTH",
"25 691.435 OFFCURVE",
"27.393 683.43 OFFCURVE",
"31.546 676.615 CURVE SMOOTH",
"222.849 350 LINE",
"31.546 23.385 LINE SMOOTH",
"27.393 16.57 OFFCURVE",
"25 8.564 OFFCURVE",
"25 0 CURVE SMOOTH",
"25 -24.853 OFFCURVE",
"45.147 -45 OFFCURVE",
"70 -45 CURVE SMOOTH"
);
}
);
width = 600;
},
{
associatedMasterId = "E2083702-67E7-471D-AE09-DB685EF5235E";
layerId = "D40434FF-A0A1-4DF5-A32B-D6E4AA7E2B8D";
name = "Nov 13 18, 14:16";
paths = (
{
closed = 0;
nodes = (
"70 700 LINE",
"480 0 LINE"
);
},
{
closed = 0;
nodes = (
"480 700 LINE",
"70 0 LINE"
);
}
);
width = 600;
}
);
unicode = 0058;
},
{
color = 6;
glyphname = Y;
lastChange = "2018-11-20 10:46:38 +0000";
layers = (
{
layerId = "E2083702-67E7-471D-AE09-DB685EF5235E";
paths = (
{
closed = 1;
nodes = (
"294.853 -45 OFFCURVE",
"315 -24.853 OFFCURVE",
"315 0 CURVE SMOOTH",
"315 348.011 LINE",
"503.672 676.978 LINE SMOOTH",
"507.691 683.713 OFFCURVE",
"510 691.587 OFFCURVE",
"510 700 CURVE SMOOTH",
"510 724.853 OFFCURVE",
"489.853 745 OFFCURVE",
"465 745 CURVE SMOOTH",
"448.01 745 OFFCURVE",
"433.221 735.585 OFFCURVE",
"425.562 721.688 CURVE SMOOTH",
"270.114 450.65 LINE",
"114.519 723.54 LINE SMOOTH",
"106.884 737.518 OFFCURVE",
"92.05 747 OFFCURVE",
"75 747 CURVE SMOOTH",
"50.147 747 OFFCURVE",
"30 726.853 OFFCURVE",
"30 702 CURVE SMOOTH",
"30 693.611 OFFCURVE",
"32.296 685.758 OFFCURVE",
"36.293 679.036 CURVE SMOOTH",
"225 348.073 LINE",
"225 0 LINE SMOOTH",
"225 -24.853 OFFCURVE",
"245.147 -45 OFFCURVE",
"270 -45 CURVE SMOOTH"
);
}
);
width = 600;
},
{
associatedMasterId = "E2083702-67E7-471D-AE09-DB685EF5235E";
layerId = "B3A3B4FC-B4D0-4B18-9ADF-B49242FFB769";
name = "Nov 13 18, 14:16";
paths = (
{
closed = 0;
nodes = (
"75 702 LINE",
"270 360 LINE",
"270 0 LINE"
);
},
{
closed = 0;
nodes = (
"465 700 LINE",
"270 360 LINE"
);
}
);
width = 600;
}
);
unicode = 0059;
},
{
color = 6;
glyphname = Z;
lastChange = "2018-11-20 10:46:38 +0000";
layers = (
{
layerId = "E2083702-67E7-471D-AE09-DB685EF5235E";
paths = (
{
closed = 1;
nodes = (
"520 -45 LINE SMOOTH",
"544.853 -45 OFFCURVE",
"565 -24.853 OFFCURVE",
"565 0 CURVE SMOOTH",
"565 24.853 OFFCURVE",
"544.853 45 OFFCURVE",
"520 45 CURVE SMOOTH",
"125.421 45 LINE",
"536.592 644.624 LINE SMOOTH",
"550.784 665.321 OFFCURVE",
"551.897 684.453 OFFCURVE",
"540.2 706.655 CURVE SMOOTH",
"536.913 712.896 LINE SMOOTH",
"525.216 735.098 OFFCURVE",
"508.808 745 OFFCURVE",
"483.713 745 CURVE SMOOTH",
"40 745 LINE SMOOTH",
"15.147 745 OFFCURVE",
"-5 724.853 OFFCURVE",
"-5 700 CURVE SMOOTH",
"-5 675.147 OFFCURVE",
"15.147 655 OFFCURVE",
"40 655 CURVE SMOOTH",
"434.579 655 LINE",
"23.408 55.376 LINE SMOOTH",
"9.216 34.679 OFFCURVE",
"8.103 15.547 OFFCURVE",
"19.8 -6.655 CURVE SMOOTH",
"23.087 -12.896 LINE SMOOTH",
"34.784 -35.098 OFFCURVE",
"51.192 -45 OFFCURVE",
"76.287 -45 CURVE SMOOTH"
);
}
);
width = 600;
},
{
associatedMasterId = "E2083702-67E7-471D-AE09-DB685EF5235E";
layerId = "98E33D45-E6B2-4A98-817F-922772B55828";
name = "Nov 13 18, 13:01";
paths = (
{
closed = 0;
nodes = (
"40 700 LINE",
"520 700 LINE",
"40 0 LINE",
"520 0 LINE"
);
}
);
width = 600;
}
);
unicode = 005A;
},
{
color = 4;
glyphname = C.alt2;
lastChange = "2018-11-20 10:35:44 +0000";
layers = (
{
associatedMasterId = "E2083702-67E7-471D-AE09-DB685EF5235E";
layerId = "43CBB0A1-5CF1-40F8-9DA0-6DEBB38EFE84";
name = "Nov 20 18, 11:20";
paths = (
{
closed = 0;
nodes = (
"690 168 LINE",
"633 97 OFFCURVE",
"509 35 OFFCURVE",
"390 35 CURVE SMOOTH",
"200 35 OFFCURVE",
"50 170 OFFCURVE",
"50 350 CURVE SMOOTH",
"50 530 OFFCURVE",
"200 665 OFFCURVE",
"390 665 CURVE SMOOTH",
"540 665 OFFCURVE",
"644 611 OFFCURVE",
"697 540 CURVE",
"480 390 LINE"
);
}
);
width = 741;
},
{
layerId = "E2083702-67E7-471D-AE09-DB685EF5235E";
paths = (
{
closed = 1;
nodes = (
"526 0 OFFCURVE",
"664 61 OFFCURVE",
"732 146 CURVE SMOOTH",
"737 152 OFFCURVE",
"740 160 OFFCURVE",
"740 168 CURVE SMOOTH",
"740 187 OFFCURVE",
"724 203 OFFCURVE",
"705 203 CURVE SMOOTH",
"694 203 OFFCURVE",
"684 198 OFFCURVE",
"678 190 CURVE SMOOTH",
"623 122 OFFCURVE",
"506 70 OFFCURVE",
"405 70 CURVE SMOOTH",
"232 70 OFFCURVE",
"100 192 OFFCURVE",
"100 350 CURVE SMOOTH",
"100 508 OFFCURVE",
"232 630 OFFCURVE",
"405 630 CURVE SMOOTH",
"513 630 OFFCURVE",
"603 600 OFFCURVE",
"660 546 CURVE",
"475 419 LINE SMOOTH",
"466 413 OFFCURVE",
"460 402 OFFCURVE",
"460 390 CURVE SMOOTH",
"460 371 OFFCURVE",
"476 355 OFFCURVE",
"495 355 CURVE SMOOTH",
"503 355 OFFCURVE",
"510 357 OFFCURVE",
"515 361 CURVE SMOOTH",
"711 497 LINE SMOOTH",
"726 507 OFFCURVE",
"733 518 OFFCURVE",
"736 536 CURVE SMOOTH",
"739 554 OFFCURVE",
"736 567 OFFCURVE",
"724 581 CURVE SMOOTH",
"655 657 OFFCURVE",
"540 700 OFFCURVE",
"405 700 CURVE SMOOTH",
"194 700 OFFCURVE",
"30 548 OFFCURVE",
"30 350 CURVE SMOOTH",
"30 152 OFFCURVE",
"194 0 OFFCURVE",
"405 0 CURVE SMOOTH"
);
}
);
width = 790;
}
);
},
{
glyphname = C.ss01;
lastChange = "2018-11-13 13:13:49 +0000";
layers = (
{
layerId = "E2083702-67E7-471D-AE09-DB685EF5235E";
paths = (
{
closed = 1;
nodes = (
"552.693 -45 OFFCURVE",
"665.6 -3.683 OFFCURVE",
"747.683 69.178 CURVE SMOOTH",
"757.073 77.425 OFFCURVE",
"763 89.52 OFFCURVE",
"763 103 CURVE SMOOTH",
"763 127.853 OFFCURVE",
"742.853 148 OFFCURVE",
"718 148 CURVE SMOOTH",
"706.479 148 OFFCURVE",
"695.97 143.67 OFFCURVE",
"688.009 136.549 CURVE SMOOTH",
"621.398 77.383 OFFCURVE",
"532.416 45 OFFCURVE",
"436 45 CURVE SMOOTH",
"234.896 45 OFFCURVE",
"65 185.769 OFFCURVE",
"65 350 CURVE SMOOTH",
"65 514.231 OFFCURVE",
"234.896 655 OFFCURVE",
"436 655 CURVE SMOOTH",
"530.643 655 OFFCURVE",
"618.784 623.375 OFFCURVE",
"687.866 564.704 CURVE SMOOTH",
"695.716 558.028 OFFCURVE",
"705.888 554 OFFCURVE",
"717 554 CURVE SMOOTH",
"741.853 554 OFFCURVE",
"762 574.147 OFFCURVE",
"762 599 CURVE SMOOTH",
"762 612.822 OFFCURVE",
"755.768 625.188 OFFCURVE",
"745.961 633.443 CURVE SMOOTH",
"661.835 704.819 OFFCURVE",
"550.128 745 OFFCURVE",
"436 745 CURVE SMOOTH",
"185.493 745 OFFCURVE",
"-25 565.568 OFFCURVE",
"-25 350 CURVE SMOOTH",
"-25 134.432 OFFCURVE",
"185.493 -45 OFFCURVE",
"436 -45 CURVE SMOOTH"
);
}
);
width = 738;
},
{
associatedMasterId = "E2083702-67E7-471D-AE09-DB685EF5235E";
layerId = "80A476FF-CE32-4B5F-8E40-6FBFE58D3A43";
name = path;
paths = (
{
closed = 0;
nodes = (
"718 103 LINE",
"646 39 OFFCURVE",
"546 0 OFFCURVE",
"436 0 CURVE SMOOTH",
"214 0 OFFCURVE",
"20 157 OFFCURVE",
"20 350 CURVE SMOOTH",
"20 543 OFFCURVE",
"214 700 OFFCURVE",
"436 700 CURVE SMOOTH",
"545 700 OFFCURVE",
"644 661 OFFCURVE",
"717 599 CURVE"
);
}
);
width = 738;
},
{
associatedMasterId = "E2083702-67E7-471D-AE09-DB685EF5235E";
layerId = "25139FCF-725A-49A6-A058-8DCF5AC16622";
paths = (
{
closed = 0;
nodes = (
"718 118 LINE",
"646 45 OFFCURVE",
"546 0 OFFCURVE",
"436 0 CURVE SMOOTH",
"214 0 OFFCURVE",
"20 179 OFFCURVE",
"20 400 CURVE SMOOTH",
"20 621 OFFCURVE",
"214 800 OFFCURVE",
"436 800 CURVE SMOOTH",
"545 800 OFFCURVE",
"644 755 OFFCURVE",
"717 685 CURVE"
);
}
);
width = 738;
}
);
},
{
glyphname = a;
lastChange = "2018-11-20 09:47:56 +0000";
layers = (
{
associatedMasterId = "E2083702-67E7-471D-AE09-DB685EF5235E";
guideLines = (
{
position = "{10, 465}";
}
);
layerId = "441AC55D-FD61-4426-97C9-5D046A2C2A7D";
name = path;
paths = (
{
closed = 0;
nodes = (
"117 465 LINE",
"458 465 LINE",
"572 0 LINE"
);
},
{
closed = 1;
nodes = (
"390 0 OFFCURVE",
"505 71 OFFCURVE",
"505 155 CURVE SMOOTH",
"505 239 OFFCURVE",
"390 310 OFFCURVE",
"250 310 CURVE SMOOTH",
"110 310 OFFCURVE",
"-5 239 OFFCURVE",
"-5 155 CURVE SMOOTH",
"-5 71 OFFCURVE",
"110 0 OFFCURVE",
"250 0 CURVE SMOOTH"
);
}
);
width = 587;
},
{
associatedMasterId = "E2083702-67E7-471D-AE09-DB685EF5235E";
layerId = "F8FF1924-0357-49B5-BD40-E20E5B0D948C";
name = "Nov 20 18, 10:27";
paths = (
{
closed = 1;
nodes = (
"584 524 OFFCURVE",
"569 544 OFFCURVE",
"544 544 CURVE SMOOTH",
"82 545 LINE SMOOTH",
"57 545 OFFCURVE",
"37 525 OFFCURVE",
"37 500 CURVE SMOOTH",
"37 475 OFFCURVE",
"57 455 OFFCURVE",
"82 455 CURVE SMOOTH",
"506 455 LINE",
"520 369 LINE",
"473 395 OFFCURVE",
"406 410 OFFCURVE",
"345 410 CURVE SMOOTH",
"178 410 OFFCURVE",
"15 312 OFFCURVE",
"15 182 CURVE SMOOTH",
"15 53 OFFCURVE",
"178 -45 OFFCURVE",
"345 -45 CURVE SMOOTH",
"442 -45 OFFCURVE",
"537 -8 OFFCURVE",
"591 50 CURVE",
"603 -8 LINE SMOOTH",
"607 -29 OFFCURVE",
"625 -45 OFFCURVE",
"647 -45 CURVE SMOOTH",
"672 -45 OFFCURVE",
"692 -25 OFFCURVE",
"692 0 CURVE SMOOTH",
"692 3 OFFCURVE",
"692 7 OFFCURVE",
"691 10 CURVE SMOOTH",
"589 499 LINE"
);
},
{
closed = 1;
nodes = (
"229 45 OFFCURVE",
"105 106 OFFCURVE",
"105 182 CURVE SMOOTH",
"105 259 OFFCURVE",
"228 320 OFFCURVE",
"345 320 CURVE SMOOTH",
"458 320 OFFCURVE",
"558 262 OFFCURVE",
"558 182 CURVE SMOOTH",
"558 102 OFFCURVE",
"457 45 OFFCURVE",
"345 45 CURVE SMOOTH"
);
}
);
width = 707;
},
{
guideLines = (
{
position = "{15, 465}";
}
);
layerId = "E2083702-67E7-471D-AE09-DB685EF5235E";
paths = (
{
closed = 1;
nodes = (
"378.56 -35 OFFCURVE",
"477.121 19.131 OFFCURVE",
"512.243 96.755 CURVE",
"537.838 -7.646 LINE SMOOTH",
"541.326 -23.299 OFFCURVE",
"555.296 -35 OFFCURVE",
"572 -35 CURVE SMOOTH",
"591.33 -35 OFFCURVE",
"607 -19.33 OFFCURVE",
"607 0 CURVE SMOOTH",
"607 3.143 OFFCURVE",
"606.585 6.189 OFFCURVE",
"605.808 9.087 CURVE SMOOTH",
"497.783 449.717 LINE SMOOTH",
"493.629 466.66 OFFCURVE",
"487.19 477.102 OFFCURVE",
"474.996 486.667 CURVE SMOOTH",
"462.803 496.232 OFFCURVE",
"451.128 500 OFFCURVE",
"433.683 500 CURVE SMOOTH",
"117 500 LINE SMOOTH",
"97.67 500 OFFCURVE",
"82 484.33 OFFCURVE",
"82 465 CURVE SMOOTH",
"82 445.67 OFFCURVE",
"97.67 430 OFFCURVE",
"117 430 CURVE SMOOTH",
"430.544 430 LINE",
"466.185 284.624 LINE",
"417.768 327.93 OFFCURVE",
"344.135 355 OFFCURVE",
"261 355 CURVE SMOOTH",
"110.26 355 OFFCURVE",
"-20 266.747 OFFCURVE",
"-20 160 CURVE SMOOTH",
"-20 53.253 OFFCURVE",
"110.26 -35 OFFCURVE",
"261 -35 CURVE SMOOTH"
);
},
{
closed = 1;
nodes = (
"150.004 35 OFFCURVE",
"50 96.322 OFFCURVE",
"50 160 CURVE SMOOTH",
"50 223.678 OFFCURVE",
"150.004 285 OFFCURVE",
"261 285 CURVE SMOOTH",
"369.431 285 OFFCURVE",
"456 227.675 OFFCURVE",
"456 160 CURVE SMOOTH",
"456 92.325 OFFCURVE",
"369.431 35 OFFCURVE",
"261 35 CURVE SMOOTH"
);
}
);
visible = 1;
width = 624;
}
);
unicode = 0061;
},
{
color = 9;
glyphname = b;
lastChange = "2018-11-20 10:46:28 +0000";
layers = (
{
layerId = "E2083702-67E7-471D-AE09-DB685EF5235E";
paths = (
{
closed = 1;
nodes = (
"136.853 -45 OFFCURVE",
"157 -24.853 OFFCURVE",
"157 0 CURVE SMOOTH",
"157 56.231 LINE",
"224.395 -6.021 OFFCURVE",
"323.827 -45 OFFCURVE",
"435 -45 CURVE SMOOTH",
"637.167 -45 OFFCURVE",
"801 86.255 OFFCURVE",
"801 251 CURVE SMOOTH",
"801 414.22 OFFCURVE",
"636.6 545 OFFCURVE",
"435 545 CURVE SMOOTH",
"324.033 545 OFFCURVE",
"224.489 506.088 OFFCURVE",
"157 444.109 CURVE",
"157 667.466 LINE SMOOTH",
"157 690.589 OFFCURVE",
"150.491 706.509 OFFCURVE",
"134.5 722.5 CURVE SMOOTH",
"118.509 738.491 OFFCURVE",
"102.589 745 OFFCURVE",
"79.466 745 CURVE SMOOTH",
"20 745 LINE SMOOTH",
"-4.853 745 OFFCURVE",
"-25 724.853 OFFCURVE",
"-25 700 CURVE SMOOTH",
"-25 675.147 OFFCURVE",
"-4.853 655 OFFCURVE",
"20 655 CURVE SMOOTH",
"67 655 LINE",
"67 0 LINE SMOOTH",
"67 -24.853 OFFCURVE",
"87.147 -45 OFFCURVE",
"112 -45 CURVE SMOOTH"
);
},
{
closed = 1;
nodes = (
"280.175 45 OFFCURVE",
"157 138.424 OFFCURVE",
"157 251 CURVE SMOOTH",
"157 361.989 OFFCURVE",
"281.423 455 OFFCURVE",
"435 455 CURVE SMOOTH",
"587.014 455 OFFCURVE",
"711 361.685 OFFCURVE",
"711 251 CURVE SMOOTH",
"711 138.731 OFFCURVE",
"588.258 45 OFFCURVE",
"435 45 CURVE SMOOTH"
);
}
);
width = 781;
},
{
associatedMasterId = "E2083702-67E7-471D-AE09-DB685EF5235E";
layerId = "60DB8FA5-510D-4F00-9783-72B2FEA28266";
name = path;
paths = (
{
closed = 0;
nodes = (
"20 700 LINE",
"112 700 LINE",
"112 0 LINE"
);
},
{
closed = 1;
nodes = (
"612 0 OFFCURVE",
"756 112 OFFCURVE",
"756 251 CURVE SMOOTH",
"756 388 OFFCURVE",
"612 500 OFFCURVE",
"435 500 CURVE SMOOTH",
"256 500 OFFCURVE",
"112 388 OFFCURVE",
"112 251 CURVE SMOOTH",
"112 112 OFFCURVE",
"256 0 OFFCURVE",
"435 0 CURVE SMOOTH"
);
}
);
width = 600;
}
);
unicode = 0062;
},
{
color = 9;
glyphname = c;
lastChange = "2018-11-20 10:46:28 +0000";
layers = (
{
layerId = "E2083702-67E7-471D-AE09-DB685EF5235E";
paths = (
{
closed = 1;
nodes = (
"519 -45 OFFCURVE",
"592 -29 OFFCURVE",
"653 0 CURVE SMOOTH",
"668 7 OFFCURVE",
"679 23 OFFCURVE",
"679 41 CURVE SMOOTH",
"679 66 OFFCURVE",
"659 86 OFFCURVE",
"634 86 CURVE SMOOTH",
"627 86 OFFCURVE",
"620 84 OFFCURVE",
"614 81 CURVE SMOOTH",
"563 57 OFFCURVE",
"508 45 OFFCURVE",
"446 45 CURVE SMOOTH",
"280 45 OFFCURVE",
"105 139 OFFCURVE",
"105 251 CURVE SMOOTH",
"105 361 OFFCURVE",
"280 455 OFFCURVE",
"446 455 CURVE SMOOTH",
"508 455 OFFCURVE",
"563 443 OFFCURVE",
"614 419 CURVE SMOOTH",
"620 416 OFFCURVE",
"627 414 OFFCURVE",
"634 414 CURVE SMOOTH",
"659 414 OFFCURVE",
"679 434 OFFCURVE",
"679 459 CURVE SMOOTH",
"679 477 OFFCURVE",
"668 493 OFFCURVE",
"653 500 CURVE SMOOTH",
"592 529 OFFCURVE",
"519 545 OFFCURVE",
"446 545 CURVE SMOOTH",
"230 545 OFFCURVE",
"15 415 OFFCURVE",
"15 251 CURVE SMOOTH",
"15 86 OFFCURVE",
"230 -45 OFFCURVE",
"446 -45 CURVE SMOOTH"
);
}
);
width = 694;
},
{
associatedMasterId = "E2083702-67E7-471D-AE09-DB685EF5235E";
guideLines = (
{
angle = 90;
position = "{590, 0}";
}
);
layerId = "738EFDE7-0FFF-448D-9DCD-219418812E48";
name = path;
paths = (
{
closed = 0;
nodes = (
"588 459 LINE"
);
},
{
closed = 0;
nodes = (
"588 459 LINE",
"534 485 OFFCURVE",
"470 500 OFFCURVE",
"400 500 CURVE SMOOTH",
"209 500 OFFCURVE",
"54 388 OFFCURVE",
"54 251 CURVE SMOOTH",
"54 112 OFFCURVE",
"209 0 OFFCURVE",
"400 0 CURVE SMOOTH",
"470 0 OFFCURVE",
"534 15 OFFCURVE",
"588 41 CURVE"
);
},
{
closed = 0;
nodes = (
"588 41 LINE"
);
}
);
width = 600;
},
{
associatedMasterId = "E2083702-67E7-471D-AE09-DB685EF5235E";
layerId = "43C59B1A-9FF7-4CC0-9569-24A82F9D5D2E";
name = "Nov 12 18, 15:10";
paths = (
{
closed = 1;
nodes = (
"590 0 OFFCURVE",
"744 112 OFFCURVE",
"744 251 CURVE SMOOTH",
"744 388 OFFCURVE",
"590 500 OFFCURVE",
"400 500 CURVE SMOOTH",
"209 500 OFFCURVE",
"54 388 OFFCURVE",
"54 251 CURVE SMOOTH",
"54 112 OFFCURVE",
"209 0 OFFCURVE",
"400 0 CURVE SMOOTH"
);
}
);
width = 600;
}
);
unicode = 0063;
},
{
color = 9;
glyphname = d;
lastChange = "2018-11-20 10:46:28 +0000";
layers = (
{
layerId = "E2083702-67E7-471D-AE09-DB685EF5235E";
paths = (
{
closed = 1;
nodes = (
"452.173 -45 OFFCURVE",
"551.605 -6.021 OFFCURVE",
"619 56.231 CURVE",
"619 0 LINE SMOOTH",
"619 -24.853 OFFCURVE",
"639.147 -45 OFFCURVE",
"664 -45 CURVE SMOOTH",
"688.853 -45 OFFCURVE",
"709 -24.853 OFFCURVE",
"709 0 CURVE SMOOTH",
"709 667.466 LINE SMOOTH",
"709 690.589 OFFCURVE",
"702.491 706.509 OFFCURVE",
"686.5 722.5 CURVE SMOOTH",
"670.509 738.491 OFFCURVE",
"654.589 745 OFFCURVE",
"631.466 745 CURVE SMOOTH",
"572 745 LINE SMOOTH",
"547.147 745 OFFCURVE",
"527 724.853 OFFCURVE",
"527 700 CURVE SMOOTH",
"527 675.147 OFFCURVE",
"547.147 655 OFFCURVE",
"572 655 CURVE SMOOTH",
"619 655 LINE",
"619 444.109 LINE",
"551.511 506.088 OFFCURVE",
"451.967 545 OFFCURVE",
"341 545 CURVE SMOOTH",
"139.4 545 OFFCURVE",
"-25 414.22 OFFCURVE",
"-25 251 CURVE SMOOTH",
"-25 86.255 OFFCURVE",
"138.833 -45 OFFCURVE",
"341 -45 CURVE SMOOTH"
);
},
{
closed = 1;
nodes = (
"187.742 45 OFFCURVE",
"65 138.731 OFFCURVE",
"65 251 CURVE SMOOTH",
"65 361.685 OFFCURVE",
"188.986 455 OFFCURVE",
"341 455 CURVE SMOOTH",
"494.577 455 OFFCURVE",
"619 361.989 OFFCURVE",
"619 251 CURVE SMOOTH",
"619 138.424 OFFCURVE",
"495.825 45 OFFCURVE",
"341 45 CURVE SMOOTH"
);
}
);
width = 600;
},
{
associatedMasterId = "E2083702-67E7-471D-AE09-DB685EF5235E";
layerId = "EF2FCA36-867C-4A07-B4F3-C5BEAE85D3C3";
name = path;
paths = (
{
closed = 0;
nodes = (
"572 700 LINE",
"664 700 LINE",
"664 0 LINE"
);
},
{
closed = 1;
nodes = (
"520 0 OFFCURVE",
"664 112 OFFCURVE",
"664 251 CURVE SMOOTH",
"664 388 OFFCURVE",
"520 500 OFFCURVE",
"341 500 CURVE SMOOTH",
"164 500 OFFCURVE",
"20 388 OFFCURVE",
"20 251 CURVE SMOOTH",
"20 112 OFFCURVE",
"164 0 OFFCURVE",
"341 0 CURVE SMOOTH"
);
}
);
width = 600;
}
);
unicode = 0064;
},
{
color = 9;
glyphname = e;
lastChange = "2018-11-20 10:46:28 +0000";
layers = (
{
layerId = "E2083702-67E7-471D-AE09-DB685EF5235E";
paths = (
{
closed = 1;
nodes = (
"489 -45 OFFCURVE",
"606 -1 OFFCURVE",
"678 74 CURVE SMOOTH",
"686 82 OFFCURVE",
"691 93 OFFCURVE",
"691 105 CURVE SMOOTH",
"691 130 OFFCURVE",
"671 150 OFFCURVE",
"646 150 CURVE SMOOTH",
"633 150 OFFCURVE",
"622 145 OFFCURVE",
"614 136 CURVE SMOOTH",
"558 79 OFFCURVE",
"466 45 OFFCURVE",
"366 45 CURVE SMOOTH",
"249 45 OFFCURVE",
"188 91 OFFCURVE",
"138 158 CURVE",
"645 298 LINE SMOOTH",
"668 304 OFFCURVE",
"683 315 OFFCURVE",
"691 338 CURVE SMOOTH",
"692 341 LINE SMOOTH",
"700 365 OFFCURVE",
"695 381 OFFCURVE",
"686 402 CURVE SMOOTH",
"642 505 OFFCURVE",
"507 545 OFFCURVE",
"369 545 CURVE SMOOTH",
"153 545 OFFCURVE",
"15 415 OFFCURVE",
"15 251 CURVE SMOOTH",
"15 86 OFFCURVE",
"150 -45 OFFCURVE",
"366 -45 CURVE SMOOTH"
);
},
{
closed = 1;
nodes = (
"105 245 OFFCURVE",
"105 248 OFFCURVE",
"105 251 CURVE SMOOTH",
"105 361 OFFCURVE",
"203 455 OFFCURVE",
"369 455 CURVE SMOOTH",
"462 455 OFFCURVE",
"556 436 OFFCURVE",
"586 376 CURVE",
"105 242 LINE"
);
}
);
width = 729;
},
{
associatedMasterId = "E2083702-67E7-471D-AE09-DB685EF5235E";
layerId = "66068E05-C79F-4D4B-857A-F3C5C9DECE3A";
name = "Nov 20 18, 09:56";
paths = (
{
closed = 0;
nodes = (
"710 219 LINE SMOOTH",
"710 114 OFFCURVE",
"578 5 OFFCURVE",
"355 0 CURVE SMOOTH",
"164 -4 OFFCURVE",
"54 112 OFFCURVE",
"54 251 CURVE SMOOTH",
"54 358 OFFCURVE",
"147 477 OFFCURVE",
"339 511 CURVE SMOOTH",
"496 539 OFFCURVE",
"654 500 OFFCURVE",
"716 350 CURVE",
"68 188 LINE"
);
}
);
width = 600;
}
);
unicode = 0065;
},
{
color = 9;
glyphname = f;
lastChange = "2018-11-20 10:46:28 +0000";
layers = (
{
layerId = "E2083702-67E7-471D-AE09-DB685EF5235E";
paths = (
{
closed = 1;
nodes = (
"293.853 -45 OFFCURVE",
"314 -24.853 OFFCURVE",
"314 0 CURVE SMOOTH",
"314 455 LINE",
"405 455 LINE SMOOTH",
"429.853 455 OFFCURVE",
"450 475.147 OFFCURVE",
"450 500 CURVE SMOOTH",
"450 524.853 OFFCURVE",
"429.853 545 OFFCURVE",
"405 545 CURVE SMOOTH",
"315.312 545 LINE",
"320.76 626.455 OFFCURVE",
"344.232 655 OFFCURVE",
"405 655 CURVE SMOOTH",
"429.853 655 OFFCURVE",
"450 675.147 OFFCURVE",
"450 700 CURVE SMOOTH",
"450 724.853 OFFCURVE",
"429.853 745 OFFCURVE",
"405 745 CURVE SMOOTH",
"254.666 745 OFFCURVE",
"229.189 625.935 OFFCURVE",
"224.877 545 CURVE",
"200 545 LINE SMOOTH",
"175.147 545 OFFCURVE",
"155 524.853 OFFCURVE",
"155 500 CURVE SMOOTH",
"155 475.147 OFFCURVE",
"175.147 455 OFFCURVE",
"200 455 CURVE SMOOTH",
"224 455 LINE",
"224 0 LINE SMOOTH",
"224 -24.853 OFFCURVE",
"244.147 -45 OFFCURVE",
"269 -45 CURVE SMOOTH"
);
}
);
width = 600;
},
{
associatedMasterId = "E2083702-67E7-471D-AE09-DB685EF5235E";
layerId = "DDA63AAA-C452-4822-B46F-6AAF757A48B0";
name = "Nov 13 18, 12:56";
paths = (
{
closed = 0;
nodes = (
"269 0 LINE",
"269 500 LINE",
"269 570 OFFCURVE",
"268 700 OFFCURVE",
"405 700 CURVE"
);
},
{
closed = 0;
nodes = (
"200 500 LINE",
"405 500 LINE"
);
}
);
width = 600;
}
);
unicode = 0066;
},
{
color = 9;
glyphname = g;
lastChange = "2018-11-20 10:46:28 +0000";
layers = (
{
guideLines = (
{
angle = 90;
position = "{20, 307}";
},
{
position = "{20, 50}";
}
);
layerId = "E2083702-67E7-471D-AE09-DB685EF5235E";
paths = (
{
closed = 1;
nodes = (
"389.099 -241.838 OFFCURVE",
"506 -169.582 OFFCURVE",
"506 -67 CURVE SMOOTH",
"506 53.505 OFFCURVE",
"388.353 90.118 OFFCURVE",
"209.686 100.806 CURVE",
"258.567 124.174 LINE",
"395.198 128.674 OFFCURVE",
"506 220.038 OFFCURVE",
"506 334 CURVE SMOOTH",
"506 379.232 OFFCURVE",
"488.81 420.874 OFFCURVE",
"459.594 455 CURVE",
"563 455 LINE SMOOTH",
"587.853 455 OFFCURVE",
"608 475.147 OFFCURVE",
"608 500 CURVE SMOOTH",
"608 524.853 OFFCURVE",
"587.853 545 OFFCURVE",
"563 545 CURVE SMOOTH",
"248 545 LINE SMOOTH",
"100.683 545 OFFCURVE",
"-25 449.355 OFFCURVE",
"-25 334 CURVE SMOOTH",
"-25 257.87 OFFCURVE",
"30.581 190.223 OFFCURVE",
"110.993 153.379 CURVE",
"37.1 118.053 LINE SMOOTH",
"12.596 106.338 OFFCURVE",
"3.533 87.622 OFFCURVE",
"9.539 61.134 CURVE SMOOTH",
"11.064 54.411 LINE SMOOTH",
"17.064 27.949 OFFCURVE",
"34.304 15.061 OFFCURVE",
"63.534 14.848 CURVE SMOOTH",
"340.971 12.831 OFFCURVE",
"416 -9.558 OFFCURVE",
"416 -67 CURVE SMOOTH",
"416 -111.184 OFFCURVE",
"337.205 -151.838 OFFCURVE",
"234.08 -151.838 CURVE SMOOTH",
"163.258 -151.838 OFFCURVE",
"98.315 -134.143 OFFCURVE",
"44.489 -100.242 CURVE SMOOTH",
"37.441 -95.661 OFFCURVE",
"29.032 -93 OFFCURVE",
"20 -93 CURVE SMOOTH",
"-4.853 -93 OFFCURVE",
"-25 -113.147 OFFCURVE",
"-25 -138 CURVE SMOOTH",
"-25 -154.298 OFFCURVE",
"-16.336 -168.572 OFFCURVE",
"-3.363 -176.468 CURVE SMOOTH",
"62.859 -218.12 OFFCURVE",
"149.068 -241.838 OFFCURVE",
"234.08 -241.838 CURVE SMOOTH"
);
},
{
closed = 1;
nodes = (
"151.246 214 OFFCURVE",
"65 272.709 OFFCURVE",
"65 334 CURVE SMOOTH",
"65 396.073 OFFCURVE",
"150.913 455 OFFCURVE",
"248 455 CURVE SMOOTH",
"340.848 455 OFFCURVE",
"416 399.12 OFFCURVE",
"416 334 CURVE SMOOTH",
"416 269.68 OFFCURVE",
"340.552 214 OFFCURVE",
"248 214 CURVE SMOOTH"
);
}
);
width = 600;
},
{
associatedMasterId = "E2083702-67E7-471D-AE09-DB685EF5235E";
guideLines = (
{
angle = 90;
position = "{20, 307}";
},
{
position = "{20, 50}";
}
);
layerId = "6C6770F9-3C19-4111-B591-AEBD7F578EDF";
name = path;
paths = (
{
closed = 1;
nodes = (
"533 201 OFFCURVE",
"422 115 OFFCURVE",
"285 115 CURVE SMOOTH",
"148 115 OFFCURVE",
"20 201 OFFCURVE",
"20 307 CURVE SMOOTH",
"20 414 OFFCURVE",
"148 500 OFFCURVE",
"285 500 CURVE SMOOTH",
"422 500 OFFCURVE",
"533 414 OFFCURVE",
"533 307 CURVE SMOOTH"
);
},
{
closed = 0;
nodes = (
"600 500 LINE",
"285 500 LINE"
);
},
{
closed = 0;
nodes = (
"285 115 LINE",
"20 50 LINE",
"285 95 OFFCURVE",
"533 87 OFFCURVE",
"533 -75 CURVE SMOOTH",
"533 -200 OFFCURVE",
"285 -248 OFFCURVE",
"20 -138 CURVE SMOOTH"
);
}
);
width = 600;
},
{
associatedMasterId = "E2083702-67E7-471D-AE09-DB685EF5235E";
guideLines = (
{
angle = 90;
position = "{20, 307}";
},
{
position = "{20, 50}";
}
);
layerId = "2999F988-BFD4-4308-98DD-4EF3E4F2E25E";
name = "Nov 12 18, 13:55";
paths = (
{
closed = 1;
nodes = (
"461 243 OFFCURVE",
"365 169 OFFCURVE",
"248 169 CURVE SMOOTH",
"130 169 OFFCURVE",
"20 243 OFFCURVE",
"20 334 CURVE SMOOTH",
"20 426 OFFCURVE",
"130 500 OFFCURVE",
"248 500 CURVE SMOOTH",
"365 500 OFFCURVE",
"461 426 OFFCURVE",
"461 334 CURVE SMOOTH"
);
},
{
closed = 0;
nodes = (
"563 500 LINE",
"248 500 LINE"
);
},
{
closed = 0;
nodes = (
"248 169 LINE",
"20 60 LINE",
"299 60 OFFCURVE",
"461 50 OFFCURVE",
"461 -67 CURVE SMOOTH",
"461 -192 OFFCURVE",
"194 -248 OFFCURVE",
"20 -138 CURVE SMOOTH"
);
}
);
width = 600;
}
);
unicode = 0067;
},
{
color = 9;
glyphname = h;
lastChange = "2018-11-20 10:46:28 +0000";
layers = (
{
layerId = "E2083702-67E7-471D-AE09-DB685EF5235E";
paths = (
{
closed = 1;
nodes = (
"157 487.069 LINE",
"216.426 515.574 OFFCURVE",
"313.691 545 OFFCURVE",
"462 545 CURVE SMOOTH",
"520.305 545 OFFCURVE",
"565 504.862 OFFCURVE",
"565 450 CURVE SMOOTH",
"565 0 LINE SMOOTH",
"565 -24.853 OFFCURVE",
"544.853 -45 OFFCURVE",
"520 -45 CURVE SMOOTH",
"495.147 -45 OFFCURVE",
"475 -24.853 OFFCURVE",
"475 0 CURVE SMOOTH",
"475 450 LINE SMOOTH",
"475 452.557 OFFCURVE",
"471.645 455 OFFCURVE",
"462 455 CURVE SMOOTH",
"270.741 455 OFFCURVE",
"185.554 405.989 OFFCURVE",
"157 384.059 CURVE",
"157 0 LINE SMOOTH",
"157 -24.853 OFFCURVE",
"136.853 -45 OFFCURVE",
"112 -45 CURVE SMOOTH",
"87.147 -45 OFFCURVE",
"67 -24.853 OFFCURVE",
"67 0 CURVE SMOOTH",
"67 655 LINE",
"20 655 LINE SMOOTH",
"-4.853 655 OFFCURVE",
"-25 675.147 OFFCURVE",
"-25 700 CURVE SMOOTH",
"-25 724.853 OFFCURVE",
"-5 745 OFFCURVE",
"20 745 CURVE SMOOTH",
"112 745 LINE SMOOTH",
"137 745 OFFCURVE",
"157 725 OFFCURVE",
"157 700 CURVE SMOOTH"
);
}
);
width = 600;
},
{
associatedMasterId = "E2083702-67E7-471D-AE09-DB685EF5235E";
layerId = "EFDAC659-7265-40BD-AE35-103FB483E2DF";
name = path;
paths = (
{
closed = 0;
nodes = (
"20 700 LINE",
"112 700 LINE",
"112 0 LINE"
);
},
{
closed = 0;
nodes = (
"112 404 LINE",
"112 404 OFFCURVE",
"195 500 OFFCURVE",
"462 500 CURVE SMOOTH",
"478 500 OFFCURVE",
"520 492 OFFCURVE",
"520 450 CURVE SMOOTH",
"520 0 LINE"
);
},
{
closed = 0;
nodes = (
"520 417 LINE"
);
}
);
width = 600;
}
);
unicode = 0068;
},
{
color = 9;
glyphname = i;
lastChange = "2018-11-20 10:46:28 +0000";
layers = (
{
layerId = "E2083702-67E7-471D-AE09-DB685EF5235E";
paths = (
{
closed = 1;
nodes = (
"115 -45 OFFCURVE",
"135 -25 OFFCURVE",
"135 0 CURVE SMOOTH",
"135 500 LINE SMOOTH",
"135 525 OFFCURVE",
"115 545 OFFCURVE",
"90 545 CURVE SMOOTH",
"65 545 OFFCURVE",
"45 525 OFFCURVE",
"45 500 CURVE SMOOTH",
"45 0 LINE SMOOTH",
"45 -25 OFFCURVE",
"65 -45 OFFCURVE",
"90 -45 CURVE SMOOTH"
);
},
{
closed = 1;
nodes = (
"45 630 OFFCURVE",
"65 610 OFFCURVE",
"90 610 CURVE SMOOTH",
"115 610 OFFCURVE",
"135 630 OFFCURVE",
"135 655 CURVE SMOOTH",
"135 680 OFFCURVE",
"115 700 OFFCURVE",
"90 700 CURVE SMOOTH",
"65 700 OFFCURVE",
"45 680 OFFCURVE",
"45 655 CURVE SMOOTH"
);
}
);
width = 180;
},
{
associatedMasterId = "E2083702-67E7-471D-AE09-DB685EF5235E";
layerId = "425CDDA3-6754-46D4-A5DF-134E56D6C5DA";
name = path;
paths = (
{
closed = 0;
nodes = (
"300 500 LINE",
"300 0 LINE"
);
}
);
width = 600;
}
);
unicode = 0069;
},
{
color = 9;
glyphname = j;
lastChange = "2018-11-20 10:46:28 +0000";
layers = (
{
guideLines = (
{
angle = 90;
position = "{255, 500}";
}
);
layerId = "E2083702-67E7-471D-AE09-DB685EF5235E";
paths = (
{
closed = 1;
nodes = (
"229.919 -165 OFFCURVE",
"239.93 -161.111 OFFCURVE",
"247.723 -154.642 CURVE SMOOTH",
"321.781 -93.871 OFFCURVE",
"345 -49.017 OFFCURVE",
"345 40 CURVE SMOOTH",
"345 500 LINE SMOOTH",
"345 524.853 OFFCURVE",
"324.853 545 OFFCURVE",
"300 545 CURVE SMOOTH",
"275.147 545 OFFCURVE",
"255 524.853 OFFCURVE",
"255 500 CURVE SMOOTH",
"255 40 LINE SMOOTH",
"255 -21.119 OFFCURVE",
"244.198 -41.123 OFFCURVE",
"190.615 -85.081 CURVE SMOOTH",
"180.477 -93.332 OFFCURVE",
"174 -105.909 OFFCURVE",
"174 -120 CURVE SMOOTH",
"174 -144.853 OFFCURVE",
"194.147 -165 OFFCURVE",
"219 -165 CURVE SMOOTH"
);
},
{
closed = 1;
nodes = (
"255 630 OFFCURVE",
"275 610 OFFCURVE",
"300 610 CURVE SMOOTH",
"325 610 OFFCURVE",
"345 630 OFFCURVE",
"345 655 CURVE SMOOTH",
"345 680 OFFCURVE",
"325 700 OFFCURVE",
"300 700 CURVE SMOOTH",
"275 700 OFFCURVE",
"255 680 OFFCURVE",
"255 655 CURVE SMOOTH"
);
}
);
width = 600;
},
{
associatedMasterId = "E2083702-67E7-471D-AE09-DB685EF5235E";
layerId = "1769E6A0-73F0-4935-ABEB-DCAEEFB260A9";
name = path;
paths = (
{
closed = 0;
nodes = (
"300 500 LINE",
"300 40 LINE",
"300 -49 OFFCURVE",
"269 -79 OFFCURVE",
"219 -120 CURVE"
);
}
);
visible = 1;
width = 600;
}
);
unicode = 006A;
},
{
color = 9;
glyphname = k;
lastChange = "2018-11-20 10:46:28 +0000";
layers = (
{
layerId = "E2083702-67E7-471D-AE09-DB685EF5235E";
paths = (
{
closed = 1;
nodes = (
"658 -45 OFFCURVE",
"678 -25 OFFCURVE",
"678 0 CURVE SMOOTH",
"678 16 OFFCURVE",
"666 24 OFFCURVE",
"657 38 CURVE SMOOTH",
"568 181 LINE",
"732 214 OFFCURVE",
"749 302 OFFCURVE",
"749 389 CURVE SMOOTH",
"749 485 OFFCURVE",
"669 545 OFFCURVE",
"544 545 CURVE SMOOTH",
"420 545 OFFCURVE",
"281 425 OFFCURVE",
"192 266 CURVE",
"192 667 LINE SMOOTH",
"192 691 OFFCURVE",
"185 707 OFFCURVE",
"170 723 CURVE SMOOTH",
"154 738 OFFCURVE",
"138 745 OFFCURVE",
"114 745 CURVE SMOOTH",
"55 745 LINE SMOOTH",
"30 745 OFFCURVE",
"10 725 OFFCURVE",
"10 700 CURVE SMOOTH",
"10 675 OFFCURVE",
"30 655 OFFCURVE",
"55 655 CURVE SMOOTH",
"102 655 LINE",
"102 44 LINE SMOOTH",
"102 15 OFFCURVE",
"117 -1 OFFCURVE",
"145 -3 CURVE SMOOTH",
"149 -3 LINE SMOOTH",
"177 -5 OFFCURVE",
"193 8 OFFCURVE",
"199 36 CURVE SMOOTH",
"245 244 OFFCURVE",
"415 455 OFFCURVE",
"544 455 CURVE SMOOTH",
"620 455 OFFCURVE",
"659 430 OFFCURVE",
"659 389 CURVE SMOOTH",
"659 348 OFFCURVE",
"612 275 OFFCURVE",
"476 260 CURVE SMOOTH",
"449 257 OFFCURVE",
"432 246 OFFCURVE",
"426 221 CURVE SMOOTH",
"424 213 LINE SMOOTH",
"418 188 OFFCURVE",
"428 174 OFFCURVE",
"445 154 CURVE SMOOTH",
"608 -37 LINE SMOOTH",
"614 -44 OFFCURVE",
"624 -45 OFFCURVE",
"633 -45 CURVE SMOOTH"
);
}
);
width = 759;
},
{
associatedMasterId = "E2083702-67E7-471D-AE09-DB685EF5235E";
layerId = "21B12486-A7F8-481F-BAF6-092AF754F723";
name = path1;
paths = (
{
closed = 0;
nodes = (
"112 700 LINE",
"112 0 LINE"
);
},
{
closed = 0;
nodes = (
"370 0 LINE",
"112 319 LINE",
"370 500 LINE"
);
}
);
width = 600;
},
{
associatedMasterId = "E2083702-67E7-471D-AE09-DB685EF5235E";
layerId = "172FA51B-6FC1-4173-A586-A1B8678CA38E";
name = path2;
paths = (
{
closed = 0;
nodes = (
"20 700 LINE",
"112 700 LINE",
"112 0 LINE"
);
},
{
closed = 0;
nodes = (
"112 285 LINE",
"370 500 LINE"
);
},
{
closed = 0;
nodes = (
"370 0 LINE",
"197 355 LINE"
);
}
);
width = 600;
},
{
associatedMasterId = "E2083702-67E7-471D-AE09-DB685EF5235E";
layerId = "6DE14EC9-87F8-43F2-98D7-580D18CB9C5F";
name = "Oct 16 18, 16:46";
paths = (
{
closed = 0;
nodes = (
"20 700 LINE",
"112 700 LINE",
"112 0 LINE",
"141 213 OFFCURVE",
"354 500 OFFCURVE",
"535 500 CURVE SMOOTH",
"629 500 OFFCURVE",
"669 443 OFFCURVE",
"669 389 CURVE SMOOTH",
"669 301 OFFCURVE",
"422 213 OFFCURVE",
"272 213 CURVE",
"372 71 OFFCURVE",
"482 12 OFFCURVE",
"598 0 CURVE"
);
}
);
width = 600;
}
);
unicode = 006B;
},
{
color = 9;
glyphname = l;
lastChange = "2018-11-20 10:46:28 +0000";
layers = (
{
layerId = "E2083702-67E7-471D-AE09-DB685EF5235E";
paths = (
{
closed = 1;
nodes = (
"115 -45 OFFCURVE",
"135 -25 OFFCURVE",
"135 0 CURVE SMOOTH",
"135 700 LINE SMOOTH",
"135 725 OFFCURVE",
"115 745 OFFCURVE",
"90 745 CURVE SMOOTH",
"65 745 OFFCURVE",
"45 725 OFFCURVE",
"45 700 CURVE SMOOTH",
"45 0 LINE SMOOTH",
"45 -25 OFFCURVE",
"65 -45 OFFCURVE",
"90 -45 CURVE SMOOTH"
);
}
);
width = 180;
},
{
associatedMasterId = "E2083702-67E7-471D-AE09-DB685EF5235E";
layerId = "8896AB9E-187E-4671-A1FC-AD298ED553AB";
name = path;
paths = (
{
closed = 0;
nodes = (
"300 700 LINE",
"300 0 LINE"
);
}
);
width = 600;
}
);
unicode = 006C;
},
{
color = 9;
glyphname = m;
lastChange = "2018-11-20 10:46:28 +0000";
layers = (
{
layerId = "E2083702-67E7-471D-AE09-DB685EF5235E";
paths = (
{
closed = 1;
nodes = (
"60 545 LINE SMOOTH",
"35 545 OFFCURVE",
"15 525 OFFCURVE",
"15 500 CURVE SMOOTH",
"15 475 OFFCURVE",
"35 455 OFFCURVE",
"60 455 CURVE SMOOTH",
"107 455 LINE",
"107 0 LINE SMOOTH",
"107 -25 OFFCURVE",
"127 -45 OFFCURVE",
"152 -45 CURVE SMOOTH",
"177 -45 OFFCURVE",
"197 -25 OFFCURVE",
"197 0 CURVE SMOOTH",
"197 384 LINE",
"226 406 OFFCURVE",
"311 455 OFFCURVE",
"502 455 CURVE SMOOTH",
"512 455 OFFCURVE",
"515 453 OFFCURVE",
"515 450 CURVE SMOOTH",
"515 0 LINE SMOOTH",
"515 -25 OFFCURVE",
"535 -45 OFFCURVE",
"560 -45 CURVE SMOOTH",
"585 -45 OFFCURVE",
"605 -25 OFFCURVE",
"605 0 CURVE SMOOTH",
"605 384 LINE",
"634 406 OFFCURVE",
"719 455 OFFCURVE",
"910 455 CURVE SMOOTH",
"920 455 OFFCURVE",
"923 453 OFFCURVE",
"923 450 CURVE SMOOTH",
"923 0 LINE SMOOTH",
"923 -25 OFFCURVE",
"943 -45 OFFCURVE",
"968 -45 CURVE SMOOTH",
"993 -45 OFFCURVE",
"1013 -25 OFFCURVE",
"1013 0 CURVE SMOOTH",
"1013 450 LINE SMOOTH",
"1013 505 OFFCURVE",
"968 545 OFFCURVE",
"910 545 CURVE SMOOTH",
"756 545 OFFCURVE",
"658 513 OFFCURVE",
"599 484 CURVE",
"585 521 OFFCURVE",
"547 545 OFFCURVE",
"502 545 CURVE SMOOTH",
"354 545 OFFCURVE",
"256 516 OFFCURVE",
"197 487 CURVE",
"197 501 LINE SMOOTH",
"197 526 OFFCURVE",
"178 545 OFFCURVE",
"153 545 CURVE SMOOTH"
);
}
);
width = 1028;
},
{
associatedMasterId = "E2083702-67E7-471D-AE09-DB685EF5235E";
layerId = "44A7E989-F62C-4171-92FF-5086EAF91FC9";
name = path;
paths = (
{
closed = 0;
nodes = (
"20 500 LINE",
"112 500 LINE",
"112 0 LINE"
);
},
{
closed = 0;
nodes = (
"112 404 LINE",
"112 404 OFFCURVE",
"195 500 OFFCURVE",
"462 500 CURVE SMOOTH",
"478 500 OFFCURVE",
"520 492 OFFCURVE",
"520 450 CURVE SMOOTH",
"520 0 LINE"
);
},
{
closed = 0;
nodes = (
"520 417 LINE"
);
},
{
closed = 0;
nodes = (
"520 404 LINE",
"520 404 OFFCURVE",
"603 500 OFFCURVE",
"870 500 CURVE SMOOTH",
"886 500 OFFCURVE",
"928 492 OFFCURVE",
"928 450 CURVE SMOOTH",
"928 0 LINE"
);
}
);
visible = 1;
width = 932;
}
);
unicode = 006D;
},
{
color = 9;
glyphname = n;
lastChange = "2018-11-20 10:46:28 +0000";
layers = (
{
layerId = "E2083702-67E7-471D-AE09-DB685EF5235E";
paths = (
{
closed = 1;
nodes = (
"90 545 LINE SMOOTH",
"65 545 OFFCURVE",
"45 525 OFFCURVE",
"45 500 CURVE SMOOTH",
"45 475 OFFCURVE",
"65 455 OFFCURVE",
"90 455 CURVE SMOOTH",
"137 455 LINE",
"137 0 LINE SMOOTH",
"137 -25 OFFCURVE",
"157 -45 OFFCURVE",
"182 -45 CURVE SMOOTH",
"207 -45 OFFCURVE",
"227 -25 OFFCURVE",
"227 0 CURVE SMOOTH",
"227 384 LINE",
"256 406 OFFCURVE",
"421 455 OFFCURVE",
"612 455 CURVE SMOOTH",
"622 455 OFFCURVE",
"625 453 OFFCURVE",
"625 450 CURVE SMOOTH",
"625 0 LINE SMOOTH",
"625 -25 OFFCURVE",
"645 -45 OFFCURVE",
"670 -45 CURVE SMOOTH",
"695 -45 OFFCURVE",
"715 -25 OFFCURVE",
"715 0 CURVE SMOOTH",
"715 450 LINE SMOOTH",
"715 505 OFFCURVE",
"670 545 OFFCURVE",
"612 545 CURVE SMOOTH",
"464 545 OFFCURVE",
"286 516 OFFCURVE",
"227 487 CURVE",
"227 500 LINE SMOOTH",
"227 525 OFFCURVE",
"207 545 OFFCURVE",
"182 545 CURVE SMOOTH"
);
}
);
width = 760;
},
{
associatedMasterId = "E2083702-67E7-471D-AE09-DB685EF5235E";
layerId = "5378D0AF-BC66-4AE5-A2DB-E0DEADFB89D8";
name = path;
paths = (
{
closed = 0;
nodes = (
"21 500 LINE",
"113 500 LINE",
"113 0 LINE"
);
},
{
closed = 0;
nodes = (
"113 404 LINE",
"113 404 OFFCURVE",
"196 500 OFFCURVE",
"463 500 CURVE SMOOTH",
"479 500 OFFCURVE",
"521 492 OFFCURVE",
"521 450 CURVE SMOOTH",
"521 0 LINE"
);
},
{
closed = 0;
nodes = (
"521 417 LINE"
);
}
);
visible = 1;
width = 600;
}
);
unicode = 006E;
},
{
color = 9;
glyphname = o;
lastChange = "2018-11-20 10:46:28 +0000";
layers = (
{
layerId = "E2083702-67E7-471D-AE09-DB685EF5235E";
paths = (
{
closed = 1;
nodes = (
"615.11 -45 OFFCURVE",
"789 85.764 OFFCURVE",
"789 251 CURVE SMOOTH",
"789 414.711 OFFCURVE",
"614.511 545 OFFCURVE",
"400 545 CURVE SMOOTH",
"184.426 545 OFFCURVE",
"9 414.706 OFFCURVE",
"9 251 CURVE SMOOTH",
"9 85.769 OFFCURVE",
"183.824 -45 OFFCURVE",
"400 -45 CURVE SMOOTH"
);
},
{
closed = 1;
nodes = (
"233.595 45 OFFCURVE",
"99 139.142 OFFCURVE",
"99 251 CURVE SMOOTH",
"99 361.274 OFFCURVE",
"234.24 455 OFFCURVE",
"400 455 CURVE SMOOTH",
"564.728 455 OFFCURVE",
"699 361.35 OFFCURVE",
"699 251 CURVE SMOOTH",
"699 139.066 OFFCURVE",
"565.367 45 OFFCURVE",
"400 45 CURVE SMOOTH"
);
}
);
width = 829;
},
{
associatedMasterId = "E2083702-67E7-471D-AE09-DB685EF5235E";
layerId = "92FEBD09-292D-47F8-A751-004192770891";
name = path;
paths = (
{
closed = 1;
nodes = (
"590 0 OFFCURVE",
"744 112 OFFCURVE",
"744 251 CURVE SMOOTH",
"744 388 OFFCURVE",
"590 500 OFFCURVE",
"400 500 CURVE SMOOTH",
"209 500 OFFCURVE",
"54 388 OFFCURVE",
"54 251 CURVE SMOOTH",
"54 112 OFFCURVE",
"209 0 OFFCURVE",
"400 0 CURVE SMOOTH"
);
}
);
width = 600;
}
);
unicode = 006F;
},
{
color = 9;
glyphname = p;
lastChange = "2018-11-20 10:46:28 +0000";
layers = (
{
layerId = "E2083702-67E7-471D-AE09-DB685EF5235E";
paths = (
{
closed = 1;
nodes = (
"192 -245 OFFCURVE",
"212 -225 OFFCURVE",
"212 -200 CURVE SMOOTH",
"212 56 LINE",
"279 -6 OFFCURVE",
"379 -45 OFFCURVE",
"490 -45 CURVE SMOOTH",
"692 -45 OFFCURVE",
"856 86 OFFCURVE",
"856 251 CURVE SMOOTH",
"856 414 OFFCURVE",
"692 545 OFFCURVE",
"490 545 CURVE SMOOTH",
"379 545 OFFCURVE",
"279 506 OFFCURVE",
"212 444 CURVE",
"212 472 LINE SMOOTH",
"212 492 OFFCURVE",
"205 507 OFFCURVE",
"190 523 CURVE SMOOTH",
"174 538 OFFCURVE",
"158 545 OFFCURVE",
"134 545 CURVE SMOOTH",
"75 545 LINE SMOOTH",
"50 545 OFFCURVE",
"30 525 OFFCURVE",
"30 500 CURVE SMOOTH",
"30 475 OFFCURVE",
"50 455 OFFCURVE",
"75 455 CURVE SMOOTH",
"122 455 LINE",
"122 -200 LINE SMOOTH",
"122 -225 OFFCURVE",
"142 -245 OFFCURVE",
"167 -245 CURVE SMOOTH"
);
},
{
closed = 1;
nodes = (
"335 45 OFFCURVE",
"212 138 OFFCURVE",
"212 251 CURVE SMOOTH",
"212 362 OFFCURVE",
"336 455 OFFCURVE",
"490 455 CURVE SMOOTH",
"642 455 OFFCURVE",
"766 362 OFFCURVE",
"766 251 CURVE SMOOTH",
"766 139 OFFCURVE",
"643 45 OFFCURVE",
"490 45 CURVE SMOOTH"
);
}
);
width = 886;
},
{
associatedMasterId = "E2083702-67E7-471D-AE09-DB685EF5235E";
layerId = "B5781A85-D598-42AD-A3D0-BB78A3262FD2";
name = path;
paths = (
{
closed = 0;
nodes = (
"20 500 LINE",
"112 500 LINE",
"112 -200 LINE"
);
},
{
closed = 1;
nodes = (
"612 0 OFFCURVE",
"756 112 OFFCURVE",
"756 251 CURVE SMOOTH",
"756 388 OFFCURVE",
"612 500 OFFCURVE",
"435 500 CURVE SMOOTH",
"256 500 OFFCURVE",
"112 388 OFFCURVE",
"112 251 CURVE SMOOTH",
"112 112 OFFCURVE",
"256 0 OFFCURVE",
"435 0 CURVE SMOOTH"
);
}
);
width = 600;
},
{
associatedMasterId = "E2083702-67E7-471D-AE09-DB685EF5235E";
layerId = "C28EB538-7C33-4A2F-8993-60824F184106";
name = "path 2";
paths = (
{
closed = 0;
nodes = (
"15 500 LINE",
"380 500 LINE SMOOTH",
"565 500 OFFCURVE",
"691 415 OFFCURVE",
"691 251 CURVE SMOOTH",
"691 112 OFFCURVE",
"587 0 OFFCURVE",
"410 0 CURVE SMOOTH",
"213 0 OFFCURVE",
"107 174 OFFCURVE",
"107 363 CURVE"
);
},
{
closed = 0;
nodes = (
"107 -200 LINE",
"107 500 LINE"
);
}
);
width = 721;
},
{
associatedMasterId = "E2083702-67E7-471D-AE09-DB685EF5235E";
layerId = "0B5589CC-A2B0-4B9D-BC6D-E08D927910B9";
name = "NUDDLE 2";
paths = (
{
closed = 1;
nodes = (
"152 -245 OFFCURVE",
"172 -225 OFFCURVE",
"172 -200 CURVE SMOOTH",
"172 79 LINE",
"234 1 OFFCURVE",
"344 -45 OFFCURVE",
"450 -45 CURVE SMOOTH",
"641 -45 OFFCURVE",
"776 77 OFFCURVE",
"776 251 CURVE SMOOTH",
"776 433 OFFCURVE",
"619 545 OFFCURVE",
"400 545 CURVE SMOOTH",
"15 545 LINE SMOOTH",
"-9.853 545 OFFCURVE",
"-30 524.853 OFFCURVE",
"-30 500 CURVE SMOOTH",
"-30 475.147 OFFCURVE",
"-9.853 455 OFFCURVE",
"15 455 CURVE SMOOTH",
"82 455 LINE",
"82 -200 LINE SMOOTH",
"82 -225 OFFCURVE",
"102 -245 OFFCURVE",
"127 -245 CURVE SMOOTH"
);
},
{
closed = 1;
nodes = (
"297 45 OFFCURVE",
"172 175 OFFCURVE",
"172 363 CURVE SMOOTH",
"172 455 LINE",
"400 455 LINE SMOOTH",
"571 455 OFFCURVE",
"686 380 OFFCURVE",
"686 251 CURVE SMOOTH",
"686 128 OFFCURVE",
"592 45 OFFCURVE",
"450 45 CURVE SMOOTH"
);
}
);
width = 806;
}
);
unicode = 0070;
},
{
color = 9;
glyphname = q;
lastChange = "2018-11-20 10:46:28 +0000";
layers = (
{
layerId = "E2083702-67E7-471D-AE09-DB685EF5235E";
paths = (
{
closed = 1;
nodes = (
"688.853 -245 OFFCURVE",
"709 -224.853 OFFCURVE",
"709 -200 CURVE SMOOTH",
"709 455 LINE",
"756 455 LINE SMOOTH",
"780.853 455 OFFCURVE",
"801 475.147 OFFCURVE",
"801 500 CURVE SMOOTH",
"801 524.853 OFFCURVE",
"780.853 545 OFFCURVE",
"756 545 CURVE SMOOTH",
"696.534 545 LINE SMOOTH",
"673.411 545 OFFCURVE",
"657.491 538.491 OFFCURVE",
"641.5 522.5 CURVE SMOOTH",
"625.509 506.509 OFFCURVE",
"619 490.589 OFFCURVE",
"619 467.466 CURVE SMOOTH",
"619 444.109 LINE",
"551.511 506.088 OFFCURVE",
"451.967 545 OFFCURVE",
"341 545 CURVE SMOOTH",
"139.4 545 OFFCURVE",
"-25 414.22 OFFCURVE",
"-25 251 CURVE SMOOTH",
"-25 86.255 OFFCURVE",
"138.833 -45 OFFCURVE",
"341 -45 CURVE SMOOTH",
"452.173 -45 OFFCURVE",
"551.605 -6.021 OFFCURVE",
"619 56.231 CURVE",
"619 -200 LINE SMOOTH",
"619 -224.853 OFFCURVE",
"639.147 -245 OFFCURVE",
"664 -245 CURVE SMOOTH"
);
},
{
closed = 1;
nodes = (
"187.742 45 OFFCURVE",
"65 138.731 OFFCURVE",
"65 251 CURVE SMOOTH",
"65 361.685 OFFCURVE",
"188.986 455 OFFCURVE",
"341 455 CURVE SMOOTH",
"494.577 455 OFFCURVE",
"619 361.989 OFFCURVE",
"619 251 CURVE SMOOTH",
"619 138.424 OFFCURVE",
"495.825 45 OFFCURVE",
"341 45 CURVE SMOOTH"
);
}
);
width = 832;
},
{
associatedMasterId = "E2083702-67E7-471D-AE09-DB685EF5235E";
layerId = "01F9A2BF-854F-4D8F-A1D9-B8216C8CE61C";
name = path;
paths = (
{
closed = 0;
nodes = (
"756 500 LINE",
"664 500 LINE",
"664 -200 LINE"
);
},
{
closed = 1;
nodes = (
"520 0 OFFCURVE",
"664 112 OFFCURVE",
"664 251 CURVE SMOOTH",
"664 388 OFFCURVE",
"520 500 OFFCURVE",
"341 500 CURVE SMOOTH",
"164 500 OFFCURVE",
"20 388 OFFCURVE",
"20 251 CURVE SMOOTH",
"20 112 OFFCURVE",
"164 0 OFFCURVE",
"341 0 CURVE SMOOTH"
);
}
);
width = 600;
}
);
unicode = 0071;
},
{
color = 9;
glyphname = r;
lastChange = "2018-11-20 10:46:28 +0000";
layers = (
{
layerId = "E2083702-67E7-471D-AE09-DB685EF5235E";
paths = (
{
closed = 1;
nodes = (
"177 -45 OFFCURVE",
"197 -25 OFFCURVE",
"197 0 CURVE SMOOTH",
"197 384 LINE",
"226 406 OFFCURVE",
"311 455 OFFCURVE",
"502 455 CURVE SMOOTH",
"512 455 OFFCURVE",
"515 453 OFFCURVE",
"515 450 CURVE SMOOTH",
"515 390 LINE SMOOTH",
"515 365 OFFCURVE",
"535 345 OFFCURVE",
"560 345 CURVE SMOOTH",
"585 345 OFFCURVE",
"605 365 OFFCURVE",
"605 390 CURVE SMOOTH",
"605 450 LINE SMOOTH",
"605 505 OFFCURVE",
"560 545 OFFCURVE",
"502 545 CURVE SMOOTH",
"354 545 OFFCURVE",
"256 516 OFFCURVE",
"197 487 CURVE",
"197 494 LINE SMOOTH",
"197 498 OFFCURVE",
"190 507 OFFCURVE",
"175 523 CURVE SMOOTH",
"159 538 OFFCURVE",
"143 545 OFFCURVE",
"119 545 CURVE SMOOTH",
"60 545 LINE SMOOTH",
"35 545 OFFCURVE",
"15 525 OFFCURVE",
"15 500 CURVE SMOOTH",
"15 475 OFFCURVE",
"35 455 OFFCURVE",
"60 455 CURVE SMOOTH",
"107 455 LINE",
"107 0 LINE SMOOTH",
"107 -25 OFFCURVE",
"127 -45 OFFCURVE",
"152 -45 CURVE SMOOTH"
);
}
);
width = 620;
},
{
associatedMasterId = "E2083702-67E7-471D-AE09-DB685EF5235E";
layerId = "C8C77AA6-2452-4EA2-BA87-9FDF4A1E307D";
name = path;
paths = (
{
closed = 0;
nodes = (
"20 500 LINE",
"112 500 LINE",
"112 0 LINE"
);
},
{
closed = 0;
nodes = (
"112 404 LINE",
"112 404 OFFCURVE",
"195 500 OFFCURVE",
"462 500 CURVE SMOOTH",
"478 500 OFFCURVE",
"520 492 OFFCURVE",
"520 450 CURVE SMOOTH",
"520 390 LINE"
);
},
{
closed = 0;
nodes = (
"520 417 LINE"
);
}
);
width = 600;
}
);
unicode = 0072;
},
{
color = 9;
glyphname = s;
lastChange = "2018-11-20 10:46:28 +0000";
layers = (
{
guideLines = (
{
locked = 1;
position = "{25, 250}";
}
);
layerId = "E2083702-67E7-471D-AE09-DB685EF5235E";
paths = (
{
closed = 1;
nodes = (
"364 -45 LINE SMOOTH",
"491.453 -45 OFFCURVE",
"565 16.071 OFFCURVE",
"565 125 CURVE SMOOTH",
"565 234.925 OFFCURVE",
"492.631 295 OFFCURVE",
"364 295 CURVE SMOOTH",
"156 295 LINE SMOOTH",
"80.392 295 OFFCURVE",
"45 322.788 OFFCURVE",
"45 375 CURVE SMOOTH",
"45 426.566 OFFCURVE",
"82.059 455 OFFCURVE",
"156 455 CURVE SMOOTH",
"500 455 LINE SMOOTH",
"524.853 455 OFFCURVE",
"545 475.147 OFFCURVE",
"545 500 CURVE SMOOTH",
"545 524.853 OFFCURVE",
"524.853 545 OFFCURVE",
"500 545 CURVE SMOOTH",
"156 545 LINE SMOOTH",
"33.84 545 OFFCURVE",
"-45 479.398 OFFCURVE",
"-45 375 CURVE SMOOTH",
"-45 269.586 OFFCURVE",
"32.637 205 OFFCURVE",
"156 205 CURVE SMOOTH",
"364 205 LINE SMOOTH",
"445.63 205 OFFCURVE",
"475 181.068 OFFCURVE",
"475 125 CURVE SMOOTH",
"475 69.598 OFFCURVE",
"443.935 45 OFFCURVE",
"364 45 CURVE SMOOTH",
"20 45 LINE SMOOTH",
"-4.853 45 OFFCURVE",
"-25 24.853 OFFCURVE",
"-25 0 CURVE SMOOTH",
"-25 -24.853 OFFCURVE",
"-4.853 -45 OFFCURVE",
"20 -45 CURVE SMOOTH"
);
}
);
width = 670;
},
{
associatedMasterId = "E2083702-67E7-471D-AE09-DB685EF5235E";
guideLines = (
{
locked = 1;
position = "{-50, 250}";
}
);
layerId = "1A06E017-4FC1-42A8-A4AA-D422D6BDFA8E";
name = path;
paths = (
{
closed = 0;
nodes = (
"20 0 LINE",
"364 0 LINE SMOOTH",
"484 0 OFFCURVE",
"520 57 OFFCURVE",
"520 125 CURVE SMOOTH",
"520 195 OFFCURVE",
"484 250 OFFCURVE",
"364 250 CURVE",
"156 250 LINE SMOOTH",
"46 250 OFFCURVE",
"0 305 OFFCURVE",
"0 375 CURVE SMOOTH",
"0 443 OFFCURVE",
"46 500 OFFCURVE",
"156 500 CURVE SMOOTH",
"500 500 LINE"
);
}
);
width = 600;
}
);
unicode = 0073;
},
{
color = 9;
glyphname = t;
lastChange = "2018-11-20 10:46:28 +0000";
layers = (
{
layerId = "E2083702-67E7-471D-AE09-DB685EF5235E";
paths = (
{
closed = 1;
nodes = (
"165 -45 OFFCURVE",
"185 -25 OFFCURVE",
"185 0 CURVE SMOOTH",
"185 455 LINE",
"240 455 LINE SMOOTH",
"265 455 OFFCURVE",
"285 475 OFFCURVE",
"285 500 CURVE SMOOTH",
"285 525 OFFCURVE",
"265 545 OFFCURVE",
"240 545 CURVE SMOOTH",
"185 545 LINE",
"185 700 LINE SMOOTH",
"185 725 OFFCURVE",
"165 745 OFFCURVE",
"140 745 CURVE SMOOTH",
"115 745 OFFCURVE",
"95 725 OFFCURVE",
"95 700 CURVE SMOOTH",
"95 545 LINE",
"90 545 LINE SMOOTH",
"65 545 OFFCURVE",
"45 525 OFFCURVE",
"45 500 CURVE SMOOTH",
"45 475 OFFCURVE",
"65 455 OFFCURVE",
"90 455 CURVE SMOOTH",
"95 455 LINE",
"95 0 LINE SMOOTH",
"95 -25 OFFCURVE",
"115 -45 OFFCURVE",
"140 -45 CURVE SMOOTH"
);
}
);
width = 330;
},
{
associatedMasterId = "E2083702-67E7-471D-AE09-DB685EF5235E";
layerId = "201F9C78-BD20-459E-9FA4-E1A1782FEB86";
name = path;
paths = (
{
closed = 0;
nodes = (
"250 700 LINE",
"250 0 LINE"
);
},
{
closed = 0;
nodes = (
"200 500 LINE",
"350 500 LINE"
);
}
);
width = 600;
}
);
unicode = 0074;
},
{
color = 9;
glyphname = u;
lastChange = "2018-11-20 10:46:28 +0000";
layers = (
{
layerId = "E2083702-67E7-471D-AE09-DB685EF5235E";
paths = (
{
closed = 1;
nodes = (
"640 -45 LINE SMOOTH",
"665 -45 OFFCURVE",
"685 -25 OFFCURVE",
"685 0 CURVE SMOOTH",
"685 25 OFFCURVE",
"665 45 OFFCURVE",
"640 45 CURVE SMOOTH",
"593 45 LINE",
"593 500 LINE SMOOTH",
"593 525 OFFCURVE",
"573 545 OFFCURVE",
"548 545 CURVE SMOOTH",
"523 545 OFFCURVE",
"503 525 OFFCURVE",
"503 500 CURVE SMOOTH",
"503 116 LINE",
"474 94 OFFCURVE",
"309.259 45 OFFCURVE",
"118 45 CURVE SMOOTH",
"108.355 45 OFFCURVE",
"105 47.443 OFFCURVE",
"105 50 CURVE SMOOTH",
"105 500 LINE SMOOTH",
"105 524.853 OFFCURVE",
"84.853 545 OFFCURVE",
"60 545 CURVE SMOOTH",
"35.147 545 OFFCURVE",
"15 524.853 OFFCURVE",
"15 500 CURVE SMOOTH",
"15 50 LINE SMOOTH",
"15 -4.862 OFFCURVE",
"59.695 -45 OFFCURVE",
"118 -45 CURVE SMOOTH",
"266.309 -45 OFFCURVE",
"444 -16 OFFCURVE",
"503 13 CURVE",
"503 0 LINE SMOOTH",
"503 -24 OFFCURVE",
"523 -45 OFFCURVE",
"549 -45 CURVE SMOOTH"
);
}
);
width = 700;
},
{
associatedMasterId = "E2083702-67E7-471D-AE09-DB685EF5235E";
layerId = "1B6F7660-4901-4BEF-A70E-C110ACAF9F9C";
name = path;
paths = (
{
closed = 0;
nodes = (
"468 500 LINE",
"468 0 LINE",
"560 0 LINE"
);
},
{
closed = 0;
nodes = (
"60 500 LINE",
"60 50 LINE SMOOTH",
"60 8 OFFCURVE",
"102 0 OFFCURVE",
"118 0 CURVE SMOOTH",
"385 0 OFFCURVE",
"468 96 OFFCURVE",
"468 96 CURVE"
);
},
{
closed = 0;
nodes = (
"408 83 LINE"
);
}
);
visible = 1;
width = 600;
}
);
unicode = 0075;
},
{
color = 9;
glyphname = v;
lastChange = "2018-11-20 10:46:28 +0000";
layers = (
{
layerId = "E2083702-67E7-471D-AE09-DB685EF5235E";
paths = (
{
closed = 1;
nodes = (
"233.818 -18.806 LINE SMOOTH",
"259.307 -18.806 OFFCURVE",
"275.719 -8.29 OFFCURVE",
"286.371 14.866 CURVE SMOOTH",
"500.494 480.35 LINE SMOOTH",
"503.38 486.287 OFFCURVE",
"505 492.954 OFFCURVE",
"505 500 CURVE SMOOTH",
"505 524.853 OFFCURVE",
"484.853 545 OFFCURVE",
"460 545 CURVE SMOOTH",
"441.511 545 OFFCURVE",
"425.627 533.85 OFFCURVE",
"418.704 517.907 CURVE SMOOTH",
"230 107.68 LINE",
"41.296 517.906 LINE SMOOTH",
"34.373 533.849 OFFCURVE",
"18.489 545 OFFCURVE",
"0 545 CURVE SMOOTH",
"-24.853 545 OFFCURVE",
"-45 524.853 OFFCURVE",
"-45 500 CURVE SMOOTH",
"-45 492.954 OFFCURVE",
"-43.38 486.287 OFFCURVE",
"-40.494 480.35 CURVE SMOOTH",
"173.629 14.866 LINE SMOOTH",
"184.281 -8.29 OFFCURVE",
"200.693 -18.806 OFFCURVE",
"226.182 -18.806 CURVE SMOOTH"
);
}
);
width = 600;
},
{
associatedMasterId = "E2083702-67E7-471D-AE09-DB685EF5235E";
layerId = "FA752F03-5862-45D0-986D-4426F5172C88";
name = path;
paths = (
{
closed = 0;
nodes = (
"0 500 LINE",
"230 0 LINE",
"460 500 LINE"
);
}
);
width = 600;
}
);
unicode = 0076;
},
{
color = 9;
glyphname = w;
lastChange = "2018-11-20 10:46:28 +0000";
layers = (
{
layerId = "E2083702-67E7-471D-AE09-DB685EF5235E";
paths = (
{
closed = 1;
nodes = (
"617 -19 OFFCURVE",
"635.746 -8.232 OFFCURVE",
"646.425 14.984 CURVE SMOOTH",
"860.494 480.35 LINE SMOOTH",
"863.38 486.287 OFFCURVE",
"865 492.954 OFFCURVE",
"865 500 CURVE SMOOTH",
"865 524.853 OFFCURVE",
"844.853 545 OFFCURVE",
"820 545 CURVE SMOOTH",
"801.511 545 OFFCURVE",
"786 534 OFFCURVE",
"778.705 517.907 CURVE SMOOTH",
"590.958 109.762 LINE",
"466.208 393.914 LINE SMOOTH",
"455.909 417.373 OFFCURVE",
"439.5 428.09 OFFCURVE",
"413.88 428.09 CURVE SMOOTH",
"406.12 428.09 LINE SMOOTH",
"380.5 428.09 OFFCURVE",
"364.091 417.373 OFFCURVE",
"353.792 393.914 CURVE SMOOTH",
"229.042 109.762 LINE",
"41.296 517.906 LINE SMOOTH",
"34 534 OFFCURVE",
"18.489 545 OFFCURVE",
"0 545 CURVE SMOOTH",
"-24.853 545 OFFCURVE",
"-45 524.853 OFFCURVE",
"-45 500 CURVE SMOOTH",
"-45 492.954 OFFCURVE",
"-43.38 486.287 OFFCURVE",
"-40.494 480.35 CURVE SMOOTH",
"173.575 14.984 LINE SMOOTH",
"185 -10 OFFCURVE",
"196 -19 OFFCURVE",
"229 -18 CURVE SMOOTH",
"255 -18 OFFCURVE",
"275.883 -7.433 OFFCURVE",
"286.155 15.966 CURVE SMOOTH",
"410 298.056 LINE",
"533.845 15.966 LINE SMOOTH",
"545 -9 OFFCURVE",
"558 -18 OFFCURVE",
"591 -18 CURVE SMOOTH"
);
}
);
width = 600;
},
{
associatedMasterId = "E2083702-67E7-471D-AE09-DB685EF5235E";
layerId = "1AD590A9-78F3-41CD-BF33-583A5080BD04";
name = path;
paths = (
{
closed = 0;
nodes = (
"0 500 LINE",
"230 0 LINE",
"410 410 LINE",
"590 0 LINE",
"820 500 LINE"
);
}
);
width = 600;
}
);
unicode = 0077;
},
{
color = 9;
glyphname = x;
lastChange = "2018-11-20 10:46:28 +0000";
layers = (
{
guideLines = (
{
position = "{883, 250}";
}
);
layerId = "E2083702-67E7-471D-AE09-DB685EF5235E";
paths = (
{
closed = 1;
nodes = (
"132.535 -45 OFFCURVE",
"146.231 -37.128 OFFCURVE",
"154.318 -25.156 CURVE SMOOTH",
"291 171.62 LINE",
"427.683 -25.156 LINE SMOOTH",
"435.769 -37.128 OFFCURVE",
"449.465 -45 OFFCURVE",
"465 -45 CURVE SMOOTH",
"489.853 -45 OFFCURVE",
"510 -24.853 OFFCURVE",
"510 0 CURVE SMOOTH",
"510 9.732 OFFCURVE",
"506.911 18.742 OFFCURVE",
"501.659 26.103 CURVE SMOOTH",
"345.791 250.5 LINE",
"501.66 474.897 LINE SMOOTH",
"506.911 482.259 OFFCURVE",
"510 491.268 OFFCURVE",
"510 501 CURVE SMOOTH",
"510 525.853 OFFCURVE",
"489.853 546 OFFCURVE",
"465 546 CURVE SMOOTH",
"449.465 546 OFFCURVE",
"435.769 538.128 OFFCURVE",
"427.683 526.156 CURVE SMOOTH",
"291 329.38 LINE",
"154.318 526.156 LINE SMOOTH",
"146.231 538.128 OFFCURVE",
"132.535 546 OFFCURVE",
"117 546 CURVE SMOOTH",
"92.147 546 OFFCURVE",
"72 525.853 OFFCURVE",
"72 501 CURVE SMOOTH",
"72 491.268 OFFCURVE",
"75.089 482.259 OFFCURVE",
"80.34 474.897 CURVE SMOOTH",
"236.209 250.5 LINE",
"80.341 26.103 LINE SMOOTH",
"75.089 18.742 OFFCURVE",
"72 9.732 OFFCURVE",
"72 0 CURVE SMOOTH",
"72 -24.853 OFFCURVE",
"92.147 -45 OFFCURVE",
"117 -45 CURVE SMOOTH"
);
}
);
width = 600;
},
{
associatedMasterId = "E2083702-67E7-471D-AE09-DB685EF5235E";
guideLines = (
{
position = "{883, 250}";
}
);
layerId = "BC30D9DE-2C80-4204-A1F8-F4BA9D0E1B27";
name = path;
paths = (
{
closed = 0;
nodes = (
"117 501 LINE",
"465 0 LINE"
);
},
{
closed = 0;
nodes = (
"465 501 LINE",
"117 0 LINE"
);
}
);
width = 600;
}
);
unicode = 0078;
},
{
color = 9;
glyphname = y;
lastChange = "2018-11-20 10:46:28 +0000";
layers = (
{
layerId = "E2083702-67E7-471D-AE09-DB685EF5235E";
paths = (
{
closed = 1;
nodes = (
"283.09 -245 OFFCURVE",
"309.734 -150.265 OFFCURVE",
"334.952 -85.28 CURVE SMOOTH",
"335.615 -83.455 LINE",
"528.277 484.547 LINE SMOOTH",
"530.039 489.366 OFFCURVE",
"531 494.571 OFFCURVE",
"531 500 CURVE SMOOTH",
"531 524.853 OFFCURVE",
"510.853 545 OFFCURVE",
"486 545 CURVE SMOOTH",
"465.844 545 OFFCURVE",
"448.784 531.748 OFFCURVE",
"443.055 513.482 CURVE SMOOTH",
"311.727 126.302 LINE",
"155.125 515.859 LINE SMOOTH",
"148.712 532.886 OFFCURVE",
"132.271 545 OFFCURVE",
"113 545 CURVE SMOOTH",
"88.147 545 OFFCURVE",
"68 524.853 OFFCURVE",
"68 500 CURVE SMOOTH",
"68 493.724 OFFCURVE",
"69.285 487.748 OFFCURVE",
"71.606 482.321 CURVE SMOOTH",
"267.336 -4.569 LINE",
"250.697 -53.624 LINE",
"224.182 -122.025 OFFCURVE",
"214.412 -155 OFFCURVE",
"101 -155 CURVE SMOOTH",
"76.147 -155 OFFCURVE",
"56 -175.147 OFFCURVE",
"56 -200 CURVE SMOOTH",
"56 -224.853 OFFCURVE",
"76.147 -245 OFFCURVE",
"101 -245 CURVE SMOOTH"
);
}
);
width = 600;
},
{
associatedMasterId = "E2083702-67E7-471D-AE09-DB685EF5235E";
layerId = "1F0B1C76-18A7-4D7C-8882-0A0A2BBBBC12";
name = path;
paths = (
{
closed = 0;
nodes = (
"486 500 LINE",
"293 -69 LINE",
"247 -186 OFFCURVE",
"157 -200 OFFCURVE",
"51 -200 CURVE SMOOTH"
);
},
{
closed = 0;
nodes = (
"113 500 LINE",
"314 0 LINE"
);
}
);
width = 600;
},
{
associatedMasterId = "E2083702-67E7-471D-AE09-DB685EF5235E";
layerId = "70990854-629B-45EE-B338-C7799E2F22B4";
name = "Nov 12 18, 15:02";
paths = (
{
closed = 0;
nodes = (
"486 500 LINE",
"293 -69 LINE",
"267 -136 OFFCURVE",
"249 -200 OFFCURVE",
"101 -200 CURVE SMOOTH"
);
},
{
closed = 0;
nodes = (
"113 500 LINE",
"314 0 LINE"
);
}
);
width = 600;
}
);
unicode = 0079;
},
{
color = 9;
glyphname = z;
lastChange = "2018-11-20 10:46:28 +0000";
layers = (
{
layerId = "E2083702-67E7-471D-AE09-DB685EF5235E";
paths = (
{
closed = 1;
nodes = (
"480 -45 LINE SMOOTH",
"504.853 -45 OFFCURVE",
"525 -24.853 OFFCURVE",
"525 0 CURVE SMOOTH",
"525 24.853 OFFCURVE",
"504.853 45 OFFCURVE",
"480 45 CURVE SMOOTH",
"105.579 45 LINE",
"486.501 441.793 LINE SMOOTH",
"504.3 460.334 OFFCURVE",
"507.841 479.678 OFFCURVE",
"497.764 503.322 CURVE SMOOTH",
"494.698 510.514 LINE SMOOTH",
"484.621 534.158 OFFCURVE",
"468.215 545 OFFCURVE",
"442.513 545 CURVE SMOOTH",
"0 545 LINE SMOOTH",
"-24.853 545 OFFCURVE",
"-45 524.853 OFFCURVE",
"-45 500 CURVE SMOOTH",
"-45 475.147 OFFCURVE",
"-24.853 455 OFFCURVE",
"0 455 CURVE SMOOTH",
"374.421 455 LINE",
"-6.501 58.207 LINE SMOOTH",
"-24.3 39.666 OFFCURVE",
"-27.841 20.322 OFFCURVE",
"-17.764 -3.322 CURVE SMOOTH",
"-14.698 -10.514 LINE SMOOTH",
"-4.621 -34.158 OFFCURVE",
"11.785 -45 OFFCURVE",
"37.487 -45 CURVE SMOOTH"
);
}
);
width = 600;
},
{
associatedMasterId = "E2083702-67E7-471D-AE09-DB685EF5235E";
layerId = "823CD064-89A4-43D5-AAE1-3D03679D8805";
name = path;
paths = (
{
closed = 0;
nodes = (
"0 500 LINE",
"480 500 LINE",
"0 0 LINE",
"480 0 LINE"
);
}
);
width = 600;
}
);
unicode = 007A;
},
{
glyphname = a.alt1;
lastChange = "2018-10-18 07:18:58 +0000";
layers = (
{
layerId = "E2083702-67E7-471D-AE09-DB685EF5235E";
paths = (
{
closed = 1;
nodes = (
"540.226 -45 OFFCURVE",
"662.935 10.568 OFFCURVE",
"731.377 95.03 CURVE",
"749.572 -7.191 LINE SMOOTH",
"753.015 -28.626 OFFCURVE",
"771.595 -45 OFFCURVE",
"794 -45 CURVE SMOOTH",
"818.853 -45 OFFCURVE",
"839 -24.853 OFFCURVE",
"839 0 CURVE SMOOTH",
"839 2.973 OFFCURVE",
"838.711 5.878 OFFCURVE",
"838.161 8.69 CURVE SMOOTH",
"749.428 507.191 LINE SMOOTH",
"745.985 528.625 OFFCURVE",
"727.406 545 OFFCURVE",
"705 545 CURVE SMOOTH",
"680.147 545 OFFCURVE",
"660 524.853 OFFCURVE",
"660 500 CURVE SMOOTH",
"660 497.027 OFFCURVE",
"660.289 494.122 OFFCURVE",
"660.839 491.31 CURVE SMOOTH",
"665.268 466.428 LINE",
"595.73 515.294 OFFCURVE",
"502.428 545 OFFCURVE",
"400 545 CURVE SMOOTH",
"184.426 545 OFFCURVE",
"9 414.706 OFFCURVE",
"9 251 CURVE SMOOTH",
"9 85.769 OFFCURVE",
"183.824 -45 OFFCURVE",
"400 -45 CURVE SMOOTH"
);
},
{
closed = 1;
nodes = (
"233.595 45 OFFCURVE",
"99 139.142 OFFCURVE",
"99 251 CURVE SMOOTH",
"99 361.274 OFFCURVE",
"234.24 455 OFFCURVE",
"400 455 CURVE SMOOTH",
"564.728 455 OFFCURVE",
"699 361.35 OFFCURVE",
"699 251 CURVE SMOOTH",
"699 139.066 OFFCURVE",
"565.367 45 OFFCURVE",
"400 45 CURVE SMOOTH"
);
}
);
width = 818;
},
{
associatedMasterId = "E2083702-67E7-471D-AE09-DB685EF5235E";
layerId = "312019C3-FB83-4CE7-ADD9-D6290D7BE48A";
name = path;
paths = (
{
closed = 0;
nodes = (
"705 500 LINE",
"794 0 LINE"
);
},
{
closed = 1;
nodes = (
"590 0 OFFCURVE",
"744 112 OFFCURVE",
"744 251 CURVE SMOOTH",
"744 388 OFFCURVE",
"590 500 OFFCURVE",
"400 500 CURVE SMOOTH",
"209 500 OFFCURVE",
"54 388 OFFCURVE",
"54 251 CURVE SMOOTH",
"54 112 OFFCURVE",
"209 0 OFFCURVE",
"400 0 CURVE SMOOTH"
);
}
);
width = 600;
}
);
},
{
color = 1;
glyphname = i.alt1;
lastChange = "2018-10-16 12:21:56 +0000";
layers = (
{
layerId = "E2083702-67E7-471D-AE09-DB685EF5235E";
paths = (
{
closed = 1;
nodes = (
"75 545 LINE SMOOTH",
"50 545 OFFCURVE",
"30 525 OFFCURVE",
"30 500 CURVE SMOOTH",
"30 475 OFFCURVE",
"50 455 OFFCURVE",
"75 455 CURVE SMOOTH",
"122 455 LINE",
"122 0 LINE SMOOTH",
"122 -25 OFFCURVE",
"142 -45 OFFCURVE",
"167 -45 CURVE SMOOTH",
"192 -45 OFFCURVE",
"212 -25 OFFCURVE",
"212 0 CURVE SMOOTH",
"212 500 LINE SMOOTH",
"212 525 OFFCURVE",
"192 545 OFFCURVE",
"167 545 CURVE SMOOTH"
);
},
{
closed = 1;
nodes = (
"142 610 OFFCURVE",
"122 630 OFFCURVE",
"122 655 CURVE SMOOTH",
"122 680 OFFCURVE",
"142 700 OFFCURVE",
"167 700 CURVE SMOOTH",
"192 700 OFFCURVE",
"212 680 OFFCURVE",
"212 655 CURVE SMOOTH",
"212 630 OFFCURVE",
"192 610 OFFCURVE",
"167 610 CURVE SMOOTH"
);
}
);
width = 600;
},
{
associatedMasterId = "E2083702-67E7-471D-AE09-DB685EF5235E";
layerId = "6735F20E-1E3E-4C44-BB51-1E8AB460EFD1";
name = path;
paths = (
{
closed = 0;
nodes = (
"32 500 LINE",
"124 500 LINE",
"124 0 LINE"
);
}
);
width = 600;
}
);
},
{
color = 1;
glyphname = j.alt1;
lastChange = "2018-10-16 12:22:02 +0000";
layers = (
{
layerId = "E2083702-67E7-471D-AE09-DB685EF5235E";
paths = (
{
closed = 1;
nodes = (
"172 545 LINE SMOOTH",
"147.147 545 OFFCURVE",
"127 524.853 OFFCURVE",
"127 500 CURVE SMOOTH",
"127 475.147 OFFCURVE",
"147.147 455 OFFCURVE",
"172 455 CURVE SMOOTH",
"219 455 LINE",
"219 -40 LINE SMOOTH",
"219 -119.128 OFFCURVE",
"194.056 -155 OFFCURVE",
"147 -155 CURVE SMOOTH",
"99.911 -155 OFFCURVE",
"77 -120.06 OFFCURVE",
"77 -41 CURVE SMOOTH",
"77 0 LINE SMOOTH",
"77 24.853 OFFCURVE",
"56.853 45 OFFCURVE",
"32 45 CURVE SMOOTH",
"7.147 45 OFFCURVE",
"-13 24.853 OFFCURVE",
"-13 0 CURVE SMOOTH",
"-13 -41 LINE SMOOTH",
"-13 -168.306 OFFCURVE",
"45.287 -245 OFFCURVE",
"147 -245 CURVE SMOOTH",
"248.817 -245 OFFCURVE",
"309 -167 OFFCURVE",
"309 -40 CURVE SMOOTH",
"309 500 LINE SMOOTH",
"309 525 OFFCURVE",
"289 545 OFFCURVE",
"264 545 CURVE SMOOTH"
);
},
{
closed = 1;
nodes = (
"239 610 OFFCURVE",
"219 630 OFFCURVE",
"219 655 CURVE SMOOTH",
"219 680 OFFCURVE",
"239 700 OFFCURVE",
"264 700 CURVE SMOOTH",
"289 700 OFFCURVE",
"309 680 OFFCURVE",
"309 655 CURVE SMOOTH",
"309 630 OFFCURVE",
"289 610 OFFCURVE",
"264 610 CURVE SMOOTH"
);
}
);
width = 600;
},
{
associatedMasterId = "E2083702-67E7-471D-AE09-DB685EF5235E";
layerId = "A4AD8931-EB8F-4785-8334-AF8FCC1EFBD3";
name = path;
paths = (
{
closed = 0;
nodes = (
"172 500 LINE",
"264 500 LINE",
"264 -40 LINE",
"264 -120 OFFCURVE",
"237 -200 OFFCURVE",
"147 -200 CURVE SMOOTH",
"57 -200 OFFCURVE",
"32 -121 OFFCURVE",
"32 -41 CURVE",
"32 0 LINE"
);
}
);
width = 600;
}
);
},
{
glyphname = k.alt1;
lastChange = "2018-11-12 12:49:01 +0000";
layers = (
{
guideLines = (
{
angle = 90;
position = "{370, 500}";
},
{
angle = 62.65;
position = "{244, 158}";
}
);
layerId = "E2083702-67E7-471D-AE09-DB685EF5235E";
paths = (
{
closed = 1;
nodes = (
"394.853 -45 OFFCURVE",
"415 -24.853 OFFCURVE",
"415 0 CURVE SMOOTH",
"415 7.304 OFFCURVE",
"413.259 14.2 OFFCURVE",
"410.172 20.299 CURVE SMOOTH",
"295.849 258.163 LINE",
"409.591 478.591 LINE SMOOTH",
"413.041 484.958 OFFCURVE",
"415 492.25 OFFCURVE",
"415 500 CURVE SMOOTH",
"415 524.853 OFFCURVE",
"394.853 545 OFFCURVE",
"370 545 CURVE SMOOTH",
"352.259 545 OFFCURVE",
"336.918 534.734 OFFCURVE",
"329.589 519.819 CURVE SMOOTH",
"157 185.344 LINE",
"157 667.466 LINE SMOOTH",
"157 690.589 OFFCURVE",
"150.491 706.509 OFFCURVE",
"134.5 722.5 CURVE SMOOTH",
"118.509 738.491 OFFCURVE",
"102.589 745 OFFCURVE",
"79.466 745 CURVE SMOOTH",
"20 745 LINE SMOOTH",
"-4.853 745 OFFCURVE",
"-25 724.853 OFFCURVE",
"-25 700 CURVE SMOOTH",
"-25 675.147 OFFCURVE",
"-4.853 655 OFFCURVE",
"20 655 CURVE SMOOTH",
"67 655 LINE",
"67 40.194 LINE SMOOTH",
"67 13.165 OFFCURVE",
"79.793 -3.106 OFFCURVE",
"106.059 -9.483 CURVE SMOOTH",
"112.931 -11.152 LINE SMOOTH",
"139.197 -17.529 OFFCURVE",
"158.027 -8.936 OFFCURVE",
"170.421 15.084 CURVE SMOOTH",
"244.149 157.969 LINE",
"329.022 -18.621 LINE SMOOTH",
"336.104 -34.181 OFFCURVE",
"351.788 -45 OFFCURVE",
"370 -45 CURVE SMOOTH"
);
},
{
closed = 1;
nodes = (
"67 0 LINE",
"67 -25 OFFCURVE",
"87 -45 OFFCURVE",
"112 -45 CURVE SMOOTH",
"137 -45 OFFCURVE",
"157 -25 OFFCURVE",
"157 0 CURVE",
"67 114 LINE"
);
},
{
closed = 1;
nodes = (
"157 700 LINE",
"157 725 OFFCURVE",
"137 745 OFFCURVE",
"112 745 CURVE",
"48 745 LINE",
"157 620 LINE"
);
}
);
width = 600;
},
{
associatedMasterId = "E2083702-67E7-471D-AE09-DB685EF5235E";
guideLines = (
{
angle = 90;
position = "{370, 500}";
}
);
layerId = "D6BDD128-9906-4D3A-8D4F-166F80C8A568";
name = path;
paths = (
{
closed = 0;
nodes = (
"370 0 LINE",
"246 258 LINE"
);
},
{
closed = 0;
nodes = (
"20 700 LINE",
"112 700 LINE",
"112 0 LINE",
"370 500 LINE"
);
}
);
visible = 1;
width = 600;
}
);
},
{
color = 1;
glyphname = l.alt1;
lastChange = "2018-10-16 12:22:06 +0000";
layers = (
{
layerId = "E2083702-67E7-471D-AE09-DB685EF5235E";
paths = (
{
closed = 1;
nodes = (
"75 745 LINE SMOOTH",
"50 745 OFFCURVE",
"30 725 OFFCURVE",
"30 700 CURVE SMOOTH",
"30 675 OFFCURVE",
"50 655 OFFCURVE",
"75 655 CURVE SMOOTH",
"122 655 LINE",
"122 0 LINE SMOOTH",
"122 -25 OFFCURVE",
"142 -45 OFFCURVE",
"167 -45 CURVE SMOOTH",
"192 -45 OFFCURVE",
"212 -25 OFFCURVE",
"212 0 CURVE SMOOTH",
"212 700 LINE SMOOTH",
"212 725 OFFCURVE",
"192 745 OFFCURVE",
"167 745 CURVE SMOOTH"
);
}
);
width = 242;
},
{
associatedMasterId = "E2083702-67E7-471D-AE09-DB685EF5235E";
layerId = "761B47CD-A5A1-4795-8E15-F817807B5704";
name = path;
paths = (
{
closed = 0;
nodes = (
"32 700 LINE",
"124 700 LINE",
"124 0 LINE"
);
}
);
width = 600;
}
);
},
{
glyphname = "i,";
lastChange = "2018-10-18 07:19:10 +0000";
=======
color = 5;
glyphname = a.alt2;
lastChange = "2018-11-20 10:18:03 +0000";
layers = (
{
layerId = "E2083702-67E7-471D-AE09-DB685EF5235E";
paths = (
{
closed = 1;
nodes = (
"391 0 OFFCURVE",
"495 60 OFFCURVE",
"515 144 CURVE",
"551 26 LINE SMOOTH",
"555 11 OFFCURVE",
"569 0 OFFCURVE",
"585 0 CURVE SMOOTH",
"604 0 OFFCURVE",
"620 16 OFFCURVE",
"620 35 CURVE SMOOTH",
"620 39 OFFCURVE",
"619 43 OFFCURVE",
"618 46 CURVE SMOOTH",
"495 452 LINE SMOOTH",
"489 469 OFFCURVE",
"483 479 OFFCURVE",
"471 488 CURVE SMOOTH",
"459 497 OFFCURVE",
"447 500 OFFCURVE",
"430 500 CURVE SMOOTH",
"171 500 LINE SMOOTH",
"152 500 OFFCURVE",
"136 484 OFFCURVE",
"136 465 CURVE SMOOTH",
"136 446 OFFCURVE",
"152 430 OFFCURVE",
"171 430 CURVE SMOOTH",
"428 430 LINE",
"475 275 LINE",
"430 321 OFFCURVE",
"353 350 OFFCURVE",
"264 350 CURVE SMOOTH",
"122 350 OFFCURVE",
"10 274 OFFCURVE",
"10 175 CURVE SMOOTH",
"10 76 OFFCURVE",
"122 0 OFFCURVE",
"264 0 CURVE SMOOTH"
);
},
{
closed = 1;
nodes = (
"162 70 OFFCURVE",
"80 119 OFFCURVE",
"80 175 CURVE SMOOTH",
"80 231 OFFCURVE",
"162 280 OFFCURVE",
"264 280 CURVE SMOOTH",
"367 280 OFFCURVE",
"449 231 OFFCURVE",
"449 175 CURVE SMOOTH",
"449 119 OFFCURVE",
"367 70 OFFCURVE",
"264 70 CURVE SMOOTH"
);
}
);
width = 620;
},
{
associatedMasterId = "E2083702-67E7-471D-AE09-DB685EF5235E";
layerId = "F1F13C26-6D1D-4EC7-AB78-D90733AFC2E3";
name = test;
paths = (
{
closed = 0;
nodes = (
"175 465 LINE",
"458 465 LINE",
"588 35 LINE"
);
},
{
closed = 1;
nodes = (
"395 35 OFFCURVE",
"488 99 OFFCURVE",
"488 175 CURVE SMOOTH",
"488 251 OFFCURVE",
"395 315 OFFCURVE",
"268 315 CURVE SMOOTH",
"143 315 OFFCURVE",
"49 251 OFFCURVE",
"49 175 CURVE SMOOTH",
"49 99 OFFCURVE",
"143 35 OFFCURVE",
"268 35 CURVE SMOOTH"
);
}
);
width = 600;
}
);
},
{
color = 5;
glyphname = n.alt2;
lastChange = "2018-11-20 10:36:23 +0000";
layers = (
{
guideLines = (
{
angle = 270;
position = "{35, 500}";
}
);
layerId = "E2083702-67E7-471D-AE09-DB685EF5235E";
paths = (
{
closed = 1;
nodes = (
"166 0 OFFCURVE",
"182 16 OFFCURVE",
"182 35 CURVE SMOOTH",
"182 344 LINE",
"217 395 OFFCURVE",
"281 430 OFFCURVE",
"338 430 CURVE SMOOTH",
"447 430 LINE SMOOTH",
"467 430 OFFCURVE",
"470 426 OFFCURVE",
"470 415 CURVE SMOOTH",
"470 35 LINE SMOOTH",
"470 16 OFFCURVE",
"486 0 OFFCURVE",
"505 0 CURVE SMOOTH",
"524 0 OFFCURVE",
"540 16 OFFCURVE",
"540 35 CURVE SMOOTH",
"540 415 LINE SMOOTH",
"540 468 OFFCURVE",
"504 500 OFFCURVE",
"447 500 CURVE SMOOTH",
"338 500 LINE SMOOTH",
"284 500 OFFCURVE",
"228 478 OFFCURVE",
"182 443 CURVE",
"182 454 LINE SMOOTH",
"182 462 OFFCURVE",
"177 470 OFFCURVE",
"165 483 CURVE SMOOTH",
"152 495 OFFCURVE",
"140 500 OFFCURVE",
"122 500 CURVE SMOOTH",
"35 500 LINE SMOOTH",
"16 500 OFFCURVE",
"0 484 OFFCURVE",
"0 465 CURVE SMOOTH",
"0 446 OFFCURVE",
"16 430 OFFCURVE",
"35 430 CURVE SMOOTH",
"112 430 LINE",
"112 35 LINE SMOOTH",
"112 16 OFFCURVE",
"128 0 OFFCURVE",
"147 0 CURVE SMOOTH"
);
}
);
width = 590;
},
{
associatedMasterId = "E2083702-67E7-471D-AE09-DB685EF5235E";
guideLines = (
{
angle = 270;
position = "{10, 500}";
}
);
layerId = "2F75ACA8-679A-4F8A-895F-203DF10C406C";
name = "Nov 20 18, 11:16";
paths = (
{
closed = 0;
nodes = (
"10 465 LINE",
"122 465 LINE",
"122 35 LINE"
);
},
{
closed = 0;
nodes = (
"480 35 LINE",
"480 415 LINE SMOOTH",
"480 450 OFFCURVE",
"457 465 OFFCURVE",
"422 465 CURVE",
"313 465 LINE",
"243 465 OFFCURVE",
"163 421 OFFCURVE",
"122 354 CURVE"
);
}
);
width = 530;
}
);
},
{
color = 5;
glyphname = o.alt2;
lastChange = "2018-11-20 10:18:15 +0000";
>>>>>>> ff055d9f8a27fcf74097cee44815ea15ef9f78bc
layers = (
{
layerId = "E2083702-67E7-471D-AE09-DB685EF5235E";
paths = (
{
closed = 1;
nodes = (
"141 500 OFFCURVE",
"30 389 OFFCURVE",
"30 251 CURVE",
"30 112 OFFCURVE",
"141 0 OFFCURVE",
"279 0 CURVE",
"418 0 OFFCURVE",
"530 112 OFFCURVE",
"530 251 CURVE",
"530 389 OFFCURVE",
"418 500 OFFCURVE",
"279 500 CURVE"
);
},
{
closed = 1;
nodes = (
"187 71 OFFCURVE",
"109 149 OFFCURVE",
"109 246 CURVE",
"109 343 OFFCURVE",
"187 422 OFFCURVE",
"285 422 CURVE",
"382 422 OFFCURVE",
"460 343 OFFCURVE",
"460 246 CURVE",
"460 149 OFFCURVE",
"382 71 OFFCURVE",
"285 71 CURVE"
);
}
);
width = 560;
},
{
associatedMasterId = "E2083702-67E7-471D-AE09-DB685EF5235E";
layerId = "A16F26DE-E61A-4764-BC3E-ECA7248C1E42";
name = "Nov 20 18, 10:58";
paths = (
{
closed = 1;
nodes = (
"402 0 OFFCURVE",
"514 112 OFFCURVE",
"514 250 CURVE SMOOTH",
"514 388 OFFCURVE",
"402 500 OFFCURVE",
"265 500 CURVE SMOOTH",
"127 500 OFFCURVE",
"15 388 OFFCURVE",
"15 250 CURVE SMOOTH",
"15 112 OFFCURVE",
"127 0 OFFCURVE",
"265 0 CURVE SMOOTH"
);
},
{
closed = 1;
nodes = (
"165 70 OFFCURVE",
"85 150 OFFCURVE",
"85 250 CURVE SMOOTH",
"85 350 OFFCURVE",
"165 430 OFFCURVE",
"265 430 CURVE SMOOTH",
"364 430 OFFCURVE",
"444 349 OFFCURVE",
"444 250 CURVE SMOOTH",
"444 151 OFFCURVE",
"364 70 OFFCURVE",
"265 70 CURVE SMOOTH"
);
}
);
width = 529;
}
);
},
{
color = 5;
glyphname = y.alt2;
lastChange = "2018-11-20 10:45:23 +0000";
layers = (
{
associatedMasterId = "E2083702-67E7-471D-AE09-DB685EF5235E";
layerId = "CC1B21B1-2486-4D21-8EB6-4297BA3412EF";
name = "Nov 20 18, 11:41";
paths = (
{
closed = 0;
nodes = (
"393 465 LINE",
"393 -165 LINE",
"35 -165 LINE"
);
},
{
closed = 0;
nodes = (
"35 465 LINE",
"35 85 LINE SMOOTH",
"35 50 OFFCURVE",
"58 35 OFFCURVE",
"93 35 CURVE",
"202 35 LINE",
"272 35 OFFCURVE",
"352 79 OFFCURVE",
"393 146 CURVE"
);
}
);
width = 600;
},
{
layerId = "E2083702-67E7-471D-AE09-DB685EF5235E";
paths = (
{
closed = 1;
nodes = (
"413 -200 LINE SMOOTH",
"431 -200 OFFCURVE",
"443 -195 OFFCURVE",
"456 -183 CURVE SMOOTH",
"468 -170 OFFCURVE",
"473 -158 OFFCURVE",
"473 -140 CURVE SMOOTH",
"473 465 LINE SMOOTH",
"473 484 OFFCURVE",
"457 500 OFFCURVE",
"438 500 CURVE SMOOTH",
"419 500 OFFCURVE",
"403 484 OFFCURVE",
"403 465 CURVE SMOOTH",
"403 156 LINE",
"368 105 OFFCURVE",
"304 70 OFFCURVE",
"247 70 CURVE SMOOTH",
"138 70 LINE SMOOTH",
"118 70 OFFCURVE",
"115 74 OFFCURVE",
"115 85 CURVE SMOOTH",
"115 465 LINE SMOOTH",
"115 484 OFFCURVE",
"99 500 OFFCURVE",
"80 500 CURVE SMOOTH",
"61 500 OFFCURVE",
"45 484 OFFCURVE",
"45 465 CURVE SMOOTH",
"45 85 LINE SMOOTH",
"45 32 OFFCURVE",
"81 0 OFFCURVE",
"138 0 CURVE SMOOTH",
"247 0 LINE SMOOTH",
"301 0 OFFCURVE",
"357 22 OFFCURVE",
"403 57 CURVE",
"403 -130 LINE",
"160 -130 LINE SMOOTH",
"141 -130 OFFCURVE",
"125 -146 OFFCURVE",
"125 -165 CURVE SMOOTH",
"125 -184 OFFCURVE",
"141 -200 OFFCURVE",
"160 -200 CURVE SMOOTH"
);
}
);
width = 523;
},
{
associatedMasterId = "E2083702-67E7-471D-AE09-DB685EF5235E";
layerId = "B756A56A-786A-4FC3-A9B7-7035F0DD1946";
name = "Nov 20 18, 11:42";
paths = (
{
closed = 1;
nodes = (
"299 -200 LINE SMOOTH",
"316 -200 OFFCURVE",
"328 -196 OFFCURVE",
"340 -187 CURVE SMOOTH",
"352 -178 OFFCURVE",
"359 -167 OFFCURVE",
"363 -150 CURVE SMOOTH",
"517 456 LINE SMOOTH",
"518 459 OFFCURVE",
"518 462 OFFCURVE",
"518 465 CURVE SMOOTH",
"518 484 OFFCURVE",
"502 500 OFFCURVE",
"483 500 CURVE SMOOTH",
"466 500 OFFCURVE",
"453 488 OFFCURVE",
"449 473 CURVE SMOOTH",
"369 158 LINE",
"334 106 OFFCURVE",
"270 70 OFFCURVE",
"252 70 CURVE SMOOTH",
"133 70 LINE SMOOTH",
"113 70 OFFCURVE",
"110 74 OFFCURVE",
"110 85 CURVE SMOOTH",
"110 465 LINE SMOOTH",
"110 484 OFFCURVE",
"94 500 OFFCURVE",
"75 500 CURVE SMOOTH",
"56 500 OFFCURVE",
"40 484 OFFCURVE",
"40 465 CURVE SMOOTH",
"40 85 LINE SMOOTH",
"40 32 OFFCURVE",
"76 0 OFFCURVE",
"133 0 CURVE SMOOTH",
"252 0 LINE SMOOTH",
"255 0 OFFCURVE",
"299 13 OFFCURVE",
"338 36 CURVE",
"296 -130 LINE",
"145 -130 LINE SMOOTH",
"126 -130 OFFCURVE",
"110 -146 OFFCURVE",
"110 -165 CURVE SMOOTH",
"110 -184 OFFCURVE",
"126 -200 OFFCURVE",
"145 -200 CURVE SMOOTH"
);
}
);
width = 518;
}
);
},
{
glyphname = e.atl1;
lastChange = "2018-11-20 08:53:55 +0000";
layers = (
{
layerId = "E2083702-67E7-471D-AE09-DB685EF5235E";
paths = (
{
closed = 1;
nodes = (
"606 -45 LINE SMOOTH",
"631 -45 OFFCURVE",
"651 -25 OFFCURVE",
"651 0 CURVE SMOOTH",
"651 25 OFFCURVE",
"631 45 OFFCURVE",
"606 45 CURVE SMOOTH",
"396 45 LINE SMOOTH",
"241 45 OFFCURVE",
"119 127 OFFCURVE",
"106 233 CURVE",
"680 235 LINE SMOOTH",
"703 235 OFFCURVE",
"719 242 OFFCURVE",
"735 258 CURVE SMOOTH",
"750 273 OFFCURVE",
"758 290 OFFCURVE",
"754 313 CURVE SMOOTH",
"733 445 OFFCURVE",
"581 545 OFFCURVE",
"396 545 CURVE SMOOTH",
"183 545 OFFCURVE",
"15 417 OFFCURVE",
"15 251 CURVE SMOOTH",
"15 84 OFFCURVE",
"183 -45 OFFCURVE",
"396 -45 CURVE SMOOTH"
);
},
{
closed = 1;
nodes = (
"165 400 OFFCURVE",
"270 455 OFFCURVE",
"396 455 CURVE SMOOTH",
"521 455 OFFCURVE",
"627 398 OFFCURVE",
"658 325 CURVE",
"123 323 LINE"
);
}
);
width = 770;
}
);
},
